<svg xmlns="http://www.w3.org/2000/svg" version="1.1" xmlns:xlink="http://www.w3.org/1999/xlink" xmlns:svgjs="http://svgjs.com/svgjs" width="512" height="512" x="0" y="0" viewBox="0 0 25.848 25.848" style="enable-background:new 0 0 512 512" xml:space="preserve" class=""><g><path d="M25.839 4.958c0 3.927-1.712 6.78-1.784 6.899a.765.765 0 0 1-1.052.256.767.767 0 0 1-.259-1.053c.016-.026 1.561-2.623 1.561-6.102 0-1.984-1.29-3.424-3.068-3.424a3.071 3.071 0 0 0-3.068 3.069c0 .721.349 2.553.483 3.198a.768.768 0 0 1-1.502.314c-.053-.253-.517-2.502-.517-3.512A4.609 4.609 0 0 1 21.237 0c2.623 0 4.602 2.131 4.602 4.958zm-4.472 1.207c.305 2.549.747 7.516.239 8.022L10.46 25.334a1.755 1.755 0 0 1-2.484-.001L.523 17.881a1.756 1.756 0 0 1 0-2.484L11.67 4.251c.177-.177 2.105-.185 4.273-.072-.012.143-.043.278-.043.424 0 .556.123 1.418.252 2.176a2.108 2.108 0 1 0 3.856 1.179c0-.717-.359-1.349-.906-1.729-.112-.667-.202-1.311-.202-1.626 0-.068.014-.131.02-.198.267.028.53.057.779.088 1.473.181 1.488.178 1.668 1.672zm-5.941 8.342c-.173-.481-.461-1.058-1.086-1.722l.846-.847-.942-.941-.913.914c-1.222-.837-2.482-.769-3.337.086-.932.932-.712 2.115-.028 3.49.47.952.556 1.5.191 1.865-.375.375-.98.212-1.529-.336-.624-.624-.99-1.395-1.172-2.02l-1.414.838c.164.566.606 1.373 1.23 2.037l-.922.923.941.942.991-.99c1.307.922 2.625.798 3.48-.057.875-.877.952-1.857.202-3.414-.52-1.116-.645-1.664-.337-1.971.27-.27.75-.347 1.375.278.693.693.923 1.366 1.048 1.722l1.376-.797z" style="" fill="#ffa526" data-original="#ffa526" class=""></path></g></svg>