<svg width="293" height="139" viewBox="0 0 293 139" fill="none" xmlns="http://www.w3.org/2000/svg">
<path d="M58.232 52.04C63.7627 53.2187 68.2053 55.984 71.56 60.336C74.9147 64.5973 76.592 69.4933 76.592 75.024C76.592 83.0027 73.7813 89.3493 68.16 94.064C62.6293 98.688 54.8773 101 44.904 101H0.432V5.528H43.408C53.1093 5.528 60.68 7.74933 66.12 12.192C71.6507 16.6347 74.416 22.664 74.416 30.28C74.416 35.9013 72.92 40.5707 69.928 44.288C67.0267 48.0053 63.128 50.5893 58.232 52.04ZM23.688 44.152H38.92C42.728 44.152 45.6293 43.336 47.624 41.704C49.7093 39.9813 50.752 37.488 50.752 34.224C50.752 30.96 49.7093 28.4667 47.624 26.744C45.6293 25.0213 42.728 24.16 38.92 24.16H23.688V44.152ZM40.824 82.232C44.7227 82.232 47.7147 81.3707 49.8 79.648C51.976 77.8347 53.064 75.2507 53.064 71.896C53.064 68.5413 51.9307 65.912 49.664 64.008C47.488 62.104 44.4507 61.152 40.552 61.152H23.688V82.232H40.824ZM113.336 0.359999V101H90.0804V0.359999H113.336ZM164.734 102.088C157.299 102.088 150.59 100.501 144.606 97.328C138.712 94.1547 134.043 89.6213 130.598 83.728C127.243 77.8347 125.566 70.944 125.566 63.056C125.566 55.2587 127.288 48.4133 130.734 42.52C134.179 36.536 138.894 31.9573 144.878 28.784C150.862 25.6107 157.571 24.024 165.006 24.024C172.44 24.024 179.15 25.6107 185.134 28.784C191.118 31.9573 195.832 36.536 199.278 42.52C202.723 48.4133 204.446 55.2587 204.446 63.056C204.446 70.8533 202.678 77.744 199.142 83.728C195.696 89.6213 190.936 94.1547 184.862 97.328C178.878 100.501 172.168 102.088 164.734 102.088ZM164.734 81.96C169.176 81.96 172.939 80.328 176.022 77.064C179.195 73.8 180.782 69.1307 180.782 63.056C180.782 56.9813 179.24 52.312 176.158 49.048C173.166 45.784 169.448 44.152 165.006 44.152C160.472 44.152 156.71 45.784 153.718 49.048C150.726 52.2213 149.23 56.8907 149.23 63.056C149.23 69.1307 150.68 73.8 153.582 77.064C156.574 80.328 160.291 81.96 164.734 81.96ZM245.616 24.024C250.965 24.024 255.634 25.112 259.624 27.288C263.704 29.464 266.832 32.32 269.008 35.856V25.112H292.264V100.864C292.264 107.845 290.858 114.147 288.048 119.768C285.328 125.48 281.112 130.013 275.4 133.368C269.778 136.723 262.752 138.4 254.32 138.4C243.077 138.4 233.965 135.725 226.984 130.376C220.002 125.117 216.013 117.955 215.016 108.888H238C238.725 111.789 240.448 114.056 243.168 115.688C245.888 117.411 249.242 118.272 253.232 118.272C258.037 118.272 261.845 116.867 264.656 114.056C267.557 111.336 269.008 106.939 269.008 100.864V90.12C266.741 93.656 263.613 96.5573 259.624 98.824C255.634 101 250.965 102.088 245.616 102.088C239.36 102.088 233.693 100.501 228.616 97.328C223.538 94.064 219.504 89.4853 216.512 83.592C213.61 77.608 212.16 70.7173 212.16 62.92C212.16 55.1227 213.61 48.2773 216.512 42.384C219.504 36.4907 223.538 31.9573 228.616 28.784C233.693 25.6107 239.36 24.024 245.616 24.024ZM269.008 63.056C269.008 57.2533 267.376 52.6747 264.112 49.32C260.938 45.9653 257.04 44.288 252.416 44.288C247.792 44.288 243.848 45.9653 240.584 49.32C237.41 52.584 235.824 57.1173 235.824 62.92C235.824 68.7227 237.41 73.3467 240.584 76.792C243.848 80.1467 247.792 81.824 252.416 81.824C257.04 81.824 260.938 80.1467 264.112 76.792C267.376 73.4373 269.008 68.8587 269.008 63.056Z" fill="#F5F5F5"/>
</svg>
