<svg width="293" height="139" viewBox="0 0 293 139" fill="none" xmlns="http://www.w3.org/2000/svg">
<path d="M58.4039 52.04C63.9345 53.2187 68.3772 55.984 71.7319 60.336C75.0865 64.5973 76.7639 69.4933 76.7639 75.024C76.7639 83.0027 73.9532 89.3493 68.3319 94.064C62.8012 98.688 55.0492 101 45.0759 101H0.603875V5.528H43.5799C53.2812 5.528 60.8519 7.74933 66.2919 12.192C71.8225 16.6347 74.5879 22.664 74.5879 30.28C74.5879 35.9013 73.0919 40.5707 70.0999 44.288C67.1985 48.0053 63.2999 50.5893 58.4039 52.04ZM23.8599 44.152H39.0919C42.8999 44.152 45.8012 43.336 47.7959 41.704C49.8812 39.9813 50.9239 37.488 50.9239 34.224C50.9239 30.96 49.8812 28.4667 47.7959 26.744C45.8012 25.0213 42.8999 24.16 39.0919 24.16H23.8599V44.152ZM40.9959 82.232C44.8945 82.232 47.8865 81.3707 49.9719 79.648C52.1479 77.8347 53.2359 75.2507 53.2359 71.896C53.2359 68.5413 52.1025 65.912 49.8359 64.008C47.6599 62.104 44.6225 61.152 40.7239 61.152H23.8599V82.232H40.9959ZM113.508 0.359999V101H90.2523V0.359999H113.508ZM164.906 102.088C157.471 102.088 150.762 100.501 144.778 97.328C138.884 94.1547 134.215 89.6213 130.77 83.728C127.415 77.8347 125.738 70.944 125.738 63.056C125.738 55.2587 127.46 48.4133 130.906 42.52C134.351 36.536 139.066 31.9573 145.05 28.784C151.034 25.6107 157.743 24.024 165.178 24.024C172.612 24.024 179.322 25.6107 185.306 28.784C191.29 31.9573 196.004 36.536 199.45 42.52C202.895 48.4133 204.618 55.2587 204.618 63.056C204.618 70.8533 202.85 77.744 199.314 83.728C195.868 89.6213 191.108 94.1547 185.034 97.328C179.05 100.501 172.34 102.088 164.906 102.088ZM164.906 81.96C169.348 81.96 173.111 80.328 176.194 77.064C179.367 73.8 180.954 69.1307 180.954 63.056C180.954 56.9813 179.412 52.312 176.33 49.048C173.338 45.784 169.62 44.152 165.178 44.152C160.644 44.152 156.882 45.784 153.89 49.048C150.898 52.2213 149.402 56.8907 149.402 63.056C149.402 69.1307 150.852 73.8 153.754 77.064C156.746 80.328 160.463 81.96 164.906 81.96ZM245.787 24.024C251.137 24.024 255.806 25.112 259.795 27.288C263.875 29.464 267.003 32.32 269.179 35.856V25.112H292.435V100.864C292.435 107.845 291.03 114.147 288.219 119.768C285.499 125.48 281.283 130.013 275.571 133.368C269.95 136.723 262.923 138.4 254.491 138.4C243.249 138.4 234.137 135.725 227.155 130.376C220.174 125.117 216.185 117.955 215.187 108.888H238.171C238.897 111.789 240.619 114.056 243.339 115.688C246.059 117.411 249.414 118.272 253.403 118.272C258.209 118.272 262.017 116.867 264.827 114.056C267.729 111.336 269.179 106.939 269.179 100.864V90.12C266.913 93.656 263.785 96.5573 259.795 98.824C255.806 101 251.137 102.088 245.787 102.088C239.531 102.088 233.865 100.501 228.787 97.328C223.71 94.064 219.675 89.4853 216.683 83.592C213.782 77.608 212.331 70.7173 212.331 62.92C212.331 55.1227 213.782 48.2773 216.683 42.384C219.675 36.4907 223.71 31.9573 228.787 28.784C233.865 25.6107 239.531 24.024 245.787 24.024ZM269.179 63.056C269.179 57.2533 267.547 52.6747 264.283 49.32C261.11 45.9653 257.211 44.288 252.587 44.288C247.963 44.288 244.019 45.9653 240.755 49.32C237.582 52.584 235.995 57.1173 235.995 62.92C235.995 68.7227 237.582 73.3467 240.755 76.792C244.019 80.1467 247.963 81.824 252.587 81.824C257.211 81.824 261.11 80.1467 264.283 76.792C267.547 73.4373 269.179 68.8587 269.179 63.056Z" fill="#F8F8F8"/>
</svg>
