<svg width="17" height="17" viewBox="0 0 17 17" fill="none" xmlns="http://www.w3.org/2000/svg">
<path d="M15.5 1.5V0.5H16.5V1.5H15.5ZM7.87377 10.5404C7.48325 10.931 6.85008 10.931 6.45956 10.5404C6.06904 10.1499 6.06904 9.51675 6.45956 9.12623L7.87377 10.5404ZM14.5 8.16667V1.5H16.5V8.16667H14.5ZM15.5 2.5H8.83333V0.5H15.5V2.5ZM16.2071 2.20711L7.87377 10.5404L6.45956 9.12623L14.7929 0.792893L16.2071 2.20711Z" fill="#33363F"/>
<path d="M14.6667 11.5V11.5C14.6667 12.5856 14.6667 13.1285 14.5278 13.5688C14.2335 14.5023 13.5023 15.2335 12.5688 15.5279C12.1284 15.6667 11.5856 15.6667 10.5 15.6667H7.33335C4.50493 15.6667 3.09071 15.6667 2.21203 14.788C1.33335 13.9093 1.33335 12.4951 1.33335 9.66671V6.50004C1.33335 5.41443 1.33335 4.87163 1.4722 4.43126C1.76653 3.49776 2.49774 2.76655 3.43124 2.47222C3.87161 2.33337 4.41441 2.33337 5.50002 2.33337V2.33337" stroke="#33363F" stroke-width="2" stroke-linecap="round"/>
</svg>
