<svg width="25" height="19" viewBox="0 0 25 19" fill="none" xmlns="http://www.w3.org/2000/svg">
<g clip-path="url(#clip0_607_7180)">
<path d="M24.9991 7.88686C24.9169 8.18109 24.8439 8.47869 24.7506 8.76955C24.6241 9.16568 24.4767 9.55371 24.3521 9.95051C24.3214 10.0477 24.3077 10.1894 24.3547 10.267C24.5758 10.6328 24.6313 11.0228 24.6123 11.4459C24.5908 11.9332 24.6026 12.4224 24.6097 12.9103C24.6123 13.1027 24.5426 13.2444 24.3769 13.3132C24.2067 13.3841 24.0482 13.3503 23.9105 13.2052C23.5401 12.8145 23.1559 12.438 22.7946 12.0385C22.6902 11.9231 22.6452 11.7503 22.578 11.614C22.16 11.8313 21.7295 12.0654 21.2886 12.278C21.1112 12.3637 21.0042 12.469 20.9742 12.6782C20.9442 12.8921 20.877 13.1006 20.8216 13.3314C20.9161 13.3362 20.9879 13.3476 21.0583 13.3422C21.2677 13.3247 21.391 13.436 21.4784 13.6182C21.7158 14.1156 21.9597 14.6096 22.1926 15.109C22.2363 15.2028 22.2597 15.3161 22.2604 15.4207C22.265 16.4559 22.2643 17.4918 22.263 18.527C22.263 18.9285 21.9949 19.1074 21.6447 18.9346C21.1536 18.693 20.6657 18.4447 20.1778 18.195C19.9124 18.0593 19.8478 17.8468 19.9795 17.5694C20.0865 17.344 20.1961 17.12 20.3102 16.8824C19.641 17.1179 19.2086 16.6712 18.7481 16.3365C18.5779 16.2123 18.4481 16.0294 18.2961 15.8769C18.09 15.6697 17.8781 15.719 17.7894 15.993C17.717 16.2157 17.6459 16.4391 17.5774 16.6631C17.5135 16.8723 17.3869 17.0019 17.1671 16.9762C16.6943 16.9209 16.2781 17.0613 15.8705 17.3001C15.7498 17.371 15.5529 17.3724 15.4139 17.3292C14.8008 17.1382 14.1936 16.9243 13.5883 16.7063C13.4468 16.655 13.3535 16.6618 13.2466 16.7799C13.0196 17.0316 12.8852 17.064 12.608 16.8797C12.2584 16.6476 11.9362 16.6314 11.5403 16.7866C10.7609 17.0923 10.9657 17.0788 10.3076 16.6314C10.2802 16.6132 10.2554 16.5895 10.2267 16.5754C9.62995 16.2879 9.25035 15.825 9.14664 15.1407C9.12512 14.9983 9.05272 14.9396 8.91249 14.9564C8.83227 14.9666 8.74944 14.9517 8.66856 14.9591C8.43376 14.9814 8.27005 14.8815 8.20026 14.6501C8.07112 14.2242 7.79 14.0474 7.37453 13.9307C6.91862 13.8031 6.58599 13.8369 6.31857 14.2519C6.27879 14.314 6.21943 14.3633 6.1666 14.4159C5.96245 14.6184 5.75113 14.617 5.54764 14.4071C5.27631 14.1284 4.99846 13.8551 4.74213 13.5622C4.59277 13.3915 4.43428 13.3105 4.21187 13.3382C4.07816 13.3551 3.94054 13.3416 3.77944 13.3416C3.81662 13.43 3.8427 13.4894 3.86749 13.5494C3.96663 13.7937 3.90988 14.0312 3.67573 14.1196C3.12656 14.3282 2.73522 14.7277 2.36149 15.167C2.05951 15.522 1.79405 15.4882 1.54098 15.0901C1.05833 14.3315 0.575681 13.573 0.0975958 12.8111C0.0473741 12.7315 0.0108492 12.6289 0.00628354 12.5351C-0.00610884 12.2665 -0.00219546 11.9966 0.00302239 11.7274C0.00889246 11.4203 0.263262 11.2408 0.542417 11.3434C0.595248 11.3629 0.648731 11.3899 0.693083 11.425C1.06942 11.7247 1.45163 11.6936 1.86384 11.4284C1.77709 11.0701 1.6786 10.6922 1.59838 10.3102C1.57164 10.184 1.56772 10.0416 1.59577 9.91677C1.70469 9.42616 1.81883 8.93623 1.95841 8.4544C1.99754 8.31943 2.12603 8.20944 2.22387 8.09741C2.25909 8.0576 2.32366 8.0441 2.37649 8.02183C3.27265 7.64797 4.03837 7.08718 4.68147 6.33812C4.9515 6.02432 5.25804 5.74426 5.54894 5.45003C5.74004 5.25703 5.95985 5.24893 6.15225 5.43181C6.39814 5.6653 6.63621 5.9069 6.8834 6.13836C7.04451 6.28885 7.06603 6.46363 6.9995 6.66406C6.91341 6.9259 6.82796 7.18773 6.74252 7.44687C7.03016 7.67497 8.07242 7.93478 8.65878 7.92735C8.5479 7.48466 8.42332 7.04534 8.3294 6.59928C7.75674 3.89386 9.05859 1.30991 11.4712 0.348272C14.5197 -0.866433 17.9146 1.22961 18.3151 4.56735C18.4292 5.52021 18.302 6.44407 18.0587 7.35914C18.0437 7.41583 18.0281 7.47184 18.0163 7.52853C18.0137 7.54202 18.0268 7.55822 18.0405 7.59534C18.1859 7.52245 18.3301 7.45159 18.4729 7.37736C19.0097 7.09933 19.5419 6.8105 20.0865 6.54866C20.2111 6.4886 20.382 6.49535 20.5242 6.51897C20.6983 6.54799 20.8738 6.60805 21.0309 6.69105C21.2807 6.82332 21.4647 6.78688 21.6343 6.55069C22.1247 5.8718 22.7822 5.4939 23.5981 5.40212C23.7573 5.38457 23.9099 5.31102 24.0671 5.27255C24.3254 5.20911 24.4852 5.29414 24.6052 5.53911C24.7337 5.80095 24.8674 6.06008 24.9985 6.32057V6.62357C24.9032 6.73492 24.8074 6.84627 24.6984 6.97314C24.7969 7.15737 24.898 7.34497 24.9985 7.53258L24.9991 7.88686ZM24.1147 6.3948C24.071 6.191 23.9777 6.12284 23.7807 6.19707C23.5831 6.27063 23.3757 6.32394 23.1683 6.35836C22.9478 6.3948 22.7815 6.50075 22.6315 6.66744C22.3706 6.95627 22.0889 7.22552 21.8267 7.513C21.6662 7.68914 21.4927 7.72693 21.2781 7.64325C21.0427 7.55147 20.8066 7.45632 20.5633 7.39491C20.4433 7.36454 20.2887 7.36859 20.1804 7.42258C19.3534 7.83355 18.5316 8.25667 17.7137 8.68789C17.6087 8.74323 17.5076 8.85188 17.4541 8.96188C16.5005 10.9122 15.1706 12.5534 13.602 13.9989C13.3692 14.2135 13.2016 14.2168 12.9778 14.011C11.4568 12.6141 10.1537 11.0343 9.21904 9.15353C9.09903 8.91126 8.94902 8.83366 8.70769 8.7871C7.84544 8.61974 6.94341 8.61366 6.16204 8.10349C5.87897 7.91926 5.79809 7.78361 5.91093 7.44822C5.96963 7.27411 6.02376 7.09798 6.08051 6.9232C6.16443 6.66361 6.06355 6.44429 5.77787 6.26523C5.60047 6.47646 5.40936 6.70523 5.21695 6.93332C4.55951 7.70938 3.77944 8.30729 2.85197 8.69937C2.76065 8.73783 2.68108 8.86538 2.64195 8.96997C2.36149 9.71702 2.34257 10.4695 2.63086 11.2226C2.6726 11.3312 2.69347 11.448 2.72022 11.562C2.79066 11.8637 2.69347 12.0385 2.40258 12.1383C2.15604 12.2227 1.90884 12.3037 1.6636 12.3921C1.39358 12.4899 1.13008 12.6418 0.825485 12.473C1.22074 13.0959 1.61664 13.7195 1.99233 14.3106C2.31583 14.04 2.62629 13.7802 2.95567 13.5049C2.92306 13.4367 2.87219 13.3233 2.81609 13.2127C2.62369 12.8287 2.78609 12.5385 3.19634 12.5372C3.66856 12.5358 4.14077 12.523 4.61168 12.5453C4.75648 12.552 4.9241 12.6276 5.03368 12.7275C5.31936 12.9866 5.57829 13.2768 5.86201 13.569C6.01594 13.4097 6.16595 13.2687 6.29966 13.1135C6.44837 12.9407 6.6186 12.909 6.82666 12.9664C7.203 13.0703 7.57803 13.1863 7.96024 13.2538C8.34179 13.3206 8.60855 13.4948 8.71356 13.8902C8.77422 14.1183 8.91706 14.1655 9.13229 14.1588C9.6593 14.1419 9.69452 14.1446 9.82105 14.6831C9.96258 15.2864 10.2587 15.7217 10.7981 15.9997C10.9475 16.0767 11.0609 16.1273 11.2207 16.0524C11.751 15.8034 12.2852 15.6502 12.8304 16.0753C13.047 15.6873 13.3516 15.7467 13.6953 15.8783C14.2582 16.0935 14.8295 16.2859 15.4028 16.4681C15.5176 16.5045 15.6742 16.4863 15.785 16.433C16.0949 16.2852 16.389 16.1124 16.7536 16.1658C16.8117 16.1738 16.9173 16.08 16.9454 16.0099C17.0399 15.7696 17.111 15.5193 17.1886 15.2716C17.2539 15.0624 17.3876 14.9855 17.6022 14.9544C18.2531 14.862 18.7807 15.0388 19.161 15.6144C19.1877 15.6556 19.2288 15.6866 19.264 15.7217C19.6332 16.0922 19.9065 16.1367 20.3539 15.8972C20.4041 15.8702 20.4524 15.8385 20.5039 15.8142C20.8092 15.6684 21.0903 15.8472 21.0909 16.1948C21.0923 16.6827 21.1686 17.1848 20.8287 17.6153C21.0616 17.7314 21.2566 17.8285 21.4849 17.9419C21.4849 17.4284 21.4575 16.9492 21.4914 16.4755C21.541 15.7905 21.391 15.1798 21.0694 14.5772C20.8966 14.2526 20.7322 14.1082 20.3735 14.1439C20.0239 14.1784 19.8556 13.932 19.9404 13.5784C20.0167 13.2606 20.125 12.9481 20.1674 12.6262C20.2424 12.0601 20.4824 11.6605 21.0381 11.5006C21.7569 11.2934 22.1476 10.7893 22.2676 10.0362C22.3021 9.82094 22.4424 9.70217 22.6641 9.70892C22.8839 9.71567 22.9994 9.83781 23.0489 10.0538C23.1403 10.4539 23.2557 10.8487 23.332 11.2523C23.3901 11.5607 23.5929 11.726 23.8042 11.9102C23.8975 11.3454 23.7971 10.848 23.5225 10.3716C23.4501 10.2454 23.4377 10.0079 23.5049 9.8837C23.7899 9.35463 23.9308 8.78237 24.0847 8.20741C24.174 7.87404 24.1493 7.60073 23.9868 7.30178C23.7286 6.82602 23.7455 6.80173 24.1147 6.3975V6.3948ZM13.2648 13.2572C13.7553 12.7227 14.2001 12.2659 14.6149 11.7813C15.6611 10.5606 16.5482 9.22979 17.1104 7.69319C17.4802 6.68228 17.6922 5.63899 17.5187 4.55587C17.113 2.02726 14.8087 0.404958 12.3771 0.917159C10.3239 1.3504 8.82966 3.42012 8.99207 5.5823C9.07555 6.68903 9.40362 7.71546 9.8778 8.69869C10.3037 9.58273 10.8294 10.4047 11.4451 11.1571C12.021 11.861 12.6348 12.5324 13.2655 13.2559L13.2648 13.2572Z" fill="white"/>
<path d="M24.9992 7.53303C24.8988 7.34542 24.7977 7.15782 24.6992 6.97359C24.8081 6.84672 24.904 6.73537 24.9992 6.62402V7.53303Z" fill="white"/>
<path d="M24.1154 6.39481C23.7462 6.79904 23.7292 6.82333 23.9875 7.29909C24.1499 7.59804 24.1747 7.87135 24.0854 8.20472C23.9314 8.77968 23.7906 9.35194 23.5055 9.88101C23.4384 10.0059 23.4507 10.2434 23.5231 10.3689C23.7977 10.8454 23.8982 11.342 23.8049 11.9075C23.5936 11.7233 23.3907 11.558 23.3327 11.2496C23.257 10.8467 23.1409 10.4512 23.0496 10.0511C23.0001 9.83512 22.8846 9.71298 22.6648 9.70623C22.4424 9.69948 22.3022 9.81825 22.2683 10.0335C22.1482 10.7866 21.7576 11.2907 21.0388 11.4979C20.4831 11.6579 20.2431 12.0574 20.1681 12.6235C20.1257 12.9454 20.0174 13.2579 19.9411 13.5757C19.8563 13.9294 20.0246 14.1757 20.3742 14.1413C20.7336 14.1055 20.8973 14.2499 21.0701 14.5745C21.3917 15.1771 21.5417 15.7878 21.4921 16.4728C21.4582 16.9465 21.4856 17.4257 21.4856 17.9392C21.2573 17.8259 21.0623 17.7287 20.8294 17.6126C21.1692 17.1827 21.0929 16.6807 21.0916 16.1921C21.0903 15.8445 20.8092 15.6657 20.5046 15.8115C20.4531 15.8358 20.4048 15.8675 20.3546 15.8945C19.9072 16.1334 19.6339 16.0895 19.2647 15.719C19.2295 15.6839 19.1891 15.6522 19.1617 15.6117C18.7821 15.0368 18.2538 14.8593 17.6028 14.9517C17.3883 14.9821 17.2552 15.0597 17.1893 15.2689C17.1117 15.5166 17.0406 15.7669 16.9461 16.0072C16.9187 16.0774 16.8123 16.1712 16.7543 16.1631C16.3897 16.1104 16.0955 16.2825 15.7857 16.4303C15.6749 16.4829 15.5183 16.5018 15.4035 16.4654C14.8302 16.2832 14.2589 16.0908 13.696 15.8756C13.3516 15.744 13.0477 15.6846 12.8311 16.0726C12.2859 15.6475 11.7517 15.8007 11.2214 16.0497C11.0616 16.1246 10.9481 16.074 10.7988 15.997C10.2594 15.719 9.96327 15.2837 9.82174 14.6804C9.6952 14.1419 9.65998 14.1399 9.13298 14.1561C8.91709 14.1628 8.77425 14.1156 8.71425 13.8875C8.60924 13.4921 8.34248 13.3186 7.96092 13.2511C7.57806 13.1837 7.20303 13.0676 6.82735 12.9637C6.61928 12.9063 6.44905 12.938 6.30034 13.1108C6.16664 13.266 6.01728 13.407 5.8627 13.5663C5.57898 13.2741 5.32004 12.9839 5.03436 12.7248C4.92479 12.6249 4.75717 12.5493 4.61237 12.5426C4.14146 12.5196 3.66859 12.5331 3.19703 12.5345C2.78678 12.5358 2.62437 12.826 2.81678 13.21C2.87222 13.3206 2.92375 13.434 2.95636 13.5022C2.62763 13.7775 2.31652 14.0373 1.99301 14.3079C1.61733 13.7168 1.22208 13.0932 0.826172 12.4704C1.13076 12.6391 1.39426 12.4872 1.66429 12.3894C1.90953 12.301 2.15672 12.22 2.40327 12.1356C2.69416 12.0358 2.79134 11.861 2.7209 11.5593C2.69416 11.4453 2.67329 11.3285 2.63155 11.2199C2.34326 10.4668 2.36217 9.71433 2.64263 8.96728C2.68177 8.86268 2.76134 8.73514 2.85265 8.69667C3.78012 8.30459 4.56019 7.70737 5.21764 6.93063C5.4107 6.70321 5.60115 6.47377 5.77856 6.26254C6.06424 6.44115 6.16511 6.66047 6.08119 6.92051C6.02445 7.09529 5.97031 7.27142 5.91161 7.44553C5.79878 7.78092 5.87966 7.91589 6.16272 8.10079C6.9441 8.6103 7.84613 8.61637 8.70838 8.7844C8.94905 8.83097 9.09907 8.90925 9.21973 9.15084C10.1544 11.0316 11.4575 12.6114 12.9785 14.0083C13.2022 14.2135 13.3699 14.2101 13.6027 13.9962C15.1713 12.5507 16.5012 10.9101 17.4548 8.95919C17.5083 8.84919 17.6094 8.74121 17.7144 8.6852C18.5323 8.25398 19.3541 7.83086 20.1811 7.41988C20.2894 7.3659 20.4446 7.36252 20.564 7.39222C20.8073 7.45363 21.0434 7.54878 21.2788 7.64056C21.4941 7.72424 21.6669 7.68645 21.8273 7.51031C22.0902 7.22283 22.3713 6.95425 22.6322 6.66474C22.7829 6.49806 22.9485 6.39211 23.169 6.35567C23.3764 6.32125 23.5838 6.26794 23.7814 6.19438C23.9791 6.12083 24.0717 6.18831 24.1154 6.39211V6.39481Z" fill="#FFA500"/>
<path d="M13.266 13.2571C12.6353 12.533 12.0216 11.8622 11.4457 11.1583C10.83 10.4059 10.3049 9.58394 9.87836 8.6999C9.40484 7.71667 9.07612 6.68957 8.99263 5.58351C8.82957 3.42201 10.3245 1.35162 12.3777 0.918372C14.8092 0.405497 17.1136 2.0278 17.5192 4.55709C17.6927 5.63952 17.4808 6.68349 17.1109 7.6944C16.5481 9.231 15.6617 10.5618 14.6155 11.7826C14.2007 12.2664 13.7565 12.7239 13.2654 13.2584L13.266 13.2571ZM10.5502 5.25217C10.5495 6.82116 11.7594 8.0858 13.2634 8.08783C14.8014 8.08985 16.0172 6.83263 16.0165 5.24137C16.0159 3.69667 14.7962 2.43473 13.3026 2.4327C11.7718 2.43068 10.5515 3.68115 10.5508 5.25284L10.5502 5.25217Z" fill="#FF0000"/>
<path d="M10.5495 5.25227C10.5501 3.68058 11.7705 2.43011 13.3012 2.43213C14.7948 2.43416 16.0145 3.6961 16.0152 5.2408C16.0158 6.83206 14.8001 8.08928 13.2621 8.08725C11.7581 8.08523 10.5482 6.82126 10.5488 5.2516L10.5495 5.25227ZM13.2738 7.27948C14.3292 7.2869 15.2214 6.3806 15.2351 5.28804C15.2488 4.17456 14.3579 3.24193 13.2784 3.23923C12.2264 3.23654 11.338 4.15094 11.3295 5.24417C11.3211 6.3482 12.2035 7.27138 13.2745 7.27948H13.2738Z" fill="#FF0000"/>
</g>
<defs>
<clipPath id="clip0_607_7180">
<rect width="25" height="19" fill="white"/>
</clipPath>
</defs>
</svg>
