<svg width="1139" height="111" viewBox="0 0 1139 111" fill="none" xmlns="http://www.w3.org/2000/svg">
<path d="M23.688 32.16V51.472H54.832V69.424H23.688V90.368H58.912V109H0.432V13.528H58.912V32.16H23.688ZM69.3861 70.92C69.3861 63.1227 70.8368 56.2773 73.7381 50.384C76.7301 44.4907 80.7648 39.9573 85.8421 36.784C90.9195 33.6107 96.5861 32.024 102.842 32.024C108.191 32.024 112.861 33.112 116.85 35.288C120.93 37.464 124.058 40.32 126.234 43.856V33.112H149.49V109H126.234V98.256C123.967 101.792 120.794 104.648 116.714 106.824C112.725 109 108.055 110.088 102.706 110.088C96.5408 110.088 90.9195 108.501 85.8421 105.328C80.7648 102.064 76.7301 97.4853 73.7381 91.592C70.8368 85.608 69.3861 78.7173 69.3861 70.92ZM126.234 71.056C126.234 65.2533 124.602 60.6747 121.338 57.32C118.165 53.9653 114.266 52.288 109.642 52.288C105.018 52.288 101.074 53.9653 97.8101 57.32C94.6368 60.584 93.0501 65.1173 93.0501 70.92C93.0501 76.7227 94.6368 81.3467 97.8101 84.792C101.074 88.1467 105.018 89.824 109.642 89.824C114.266 89.824 118.165 88.1467 121.338 84.792C124.602 81.4373 126.234 76.8587 126.234 71.056ZM208.611 89.28V109H196.779C188.347 109 181.773 106.96 177.059 102.88C172.344 98.7093 169.987 91.9547 169.987 82.616V52.424H160.739V33.112H169.987V14.616H193.243V33.112H208.475V52.424H193.243V82.888C193.243 85.1547 193.787 86.7867 194.875 87.784C195.963 88.7813 197.776 89.28 200.315 89.28H208.611ZM232.445 110.088C228.365 110.088 225.01 108.909 222.381 106.552C219.842 104.104 218.573 101.112 218.573 97.576C218.573 93.9493 219.842 90.912 222.381 88.464C225.01 86.016 228.365 84.792 232.445 84.792C236.434 84.792 239.698 86.016 242.237 88.464C244.866 90.912 246.181 93.9493 246.181 97.576C246.181 101.112 244.866 104.104 242.237 106.552C239.698 108.909 236.434 110.088 232.445 110.088ZM324.536 13.528C334.6 13.528 343.395 15.5227 350.92 19.512C358.445 23.5013 364.248 29.1227 368.328 36.376C372.499 43.5387 374.584 51.8347 374.584 61.264C374.584 70.6027 372.499 78.8987 368.328 86.152C364.248 93.4053 358.4 99.0267 350.784 103.016C343.259 107.005 334.509 109 324.536 109H288.768V13.528H324.536ZM323.04 88.872C331.835 88.872 338.68 86.4693 343.576 81.664C348.472 76.8587 350.92 70.0587 350.92 61.264C350.92 52.4693 348.472 45.624 343.576 40.728C338.68 35.832 331.835 33.384 323.04 33.384H312.024V88.872H323.04ZM410.836 45.76C413.556 41.5893 416.956 38.3253 421.036 35.968C425.116 33.52 429.65 32.296 434.636 32.296V56.912H428.244C422.442 56.912 418.09 58.1813 415.188 60.72C412.287 63.168 410.836 67.52 410.836 73.776V109H387.58V33.112H410.836V45.76ZM457.448 25.224C453.368 25.224 450.014 24.0453 447.384 21.688C444.846 19.24 443.576 16.248 443.576 12.712C443.576 9.08533 444.846 6.09333 447.384 3.73599C450.014 1.28799 453.368 0.063992 457.448 0.063992C461.438 0.063992 464.702 1.28799 467.24 3.73599C469.87 6.09333 471.184 9.08533 471.184 12.712C471.184 16.248 469.87 19.24 467.24 21.688C464.702 24.0453 461.438 25.224 457.448 25.224ZM469.008 33.112V109H445.752V33.112H469.008ZM532.102 32.296C540.987 32.296 548.059 35.1973 553.318 41C558.667 46.712 561.342 54.6 561.342 64.664V109H538.222V67.792C538.222 62.7147 536.907 58.7707 534.278 55.96C531.648 53.1493 528.112 51.744 523.67 51.744C519.227 51.744 515.691 53.1493 513.062 55.96C510.432 58.7707 509.118 62.7147 509.118 67.792V109H485.862V33.112H509.118V43.176C511.475 39.8213 514.648 37.192 518.638 35.288C522.627 33.2933 527.115 32.296 532.102 32.296ZM623.878 109L600.758 77.176V109H577.502V8.36H600.758V63.984L623.742 33.112H652.438L620.886 71.192L652.71 109H623.878ZM672.453 110.088C668.373 110.088 665.018 108.909 662.389 106.552C659.85 104.104 658.581 101.112 658.581 97.576C658.581 93.9493 659.85 90.912 662.389 88.464C665.018 86.016 668.373 84.792 672.453 84.792C676.442 84.792 679.706 86.016 682.245 88.464C684.874 90.912 686.189 93.9493 686.189 97.576C686.189 101.112 684.874 104.104 682.245 106.552C679.706 108.909 676.442 110.088 672.453 110.088ZM777.464 109L757.608 72.96H752.032V109H728.776V13.528H767.808C775.333 13.528 781.725 14.8427 786.984 17.472C792.333 20.1013 796.322 23.728 798.952 28.352C801.581 32.8853 802.896 37.9627 802.896 43.584C802.896 49.9307 801.082 55.5973 797.456 60.584C793.92 65.5707 788.661 69.1067 781.68 71.192L803.712 109H777.464ZM752.032 56.504H766.448C770.709 56.504 773.882 55.4613 775.968 53.376C778.144 51.2907 779.232 48.344 779.232 44.536C779.232 40.9093 778.144 38.0533 775.968 35.968C773.882 33.8827 770.709 32.84 766.448 32.84H752.032V56.504ZM889.03 69.832C889.03 72.008 888.895 74.2747 888.623 76.632H835.991C836.353 81.3467 837.849 84.9733 840.479 87.512C843.199 89.96 846.508 91.184 850.407 91.184C856.209 91.184 860.244 88.736 862.511 83.84H887.263C885.993 88.8267 883.681 93.3147 880.327 97.304C877.063 101.293 872.937 104.421 867.951 106.688C862.964 108.955 857.388 110.088 851.223 110.088C843.788 110.088 837.169 108.501 831.367 105.328C825.564 102.155 821.031 97.6213 817.767 91.728C814.503 85.8347 812.871 78.944 812.871 71.056C812.871 63.168 814.457 56.2773 817.631 50.384C820.895 44.4907 825.428 39.9573 831.231 36.784C837.033 33.6107 843.697 32.024 851.223 32.024C858.567 32.024 865.095 33.5653 870.807 36.648C876.519 39.7307 880.961 44.128 884.135 49.84C887.399 55.552 889.03 62.216 889.03 69.832ZM865.231 63.712C865.231 59.7227 863.871 56.5493 861.151 54.192C858.431 51.8347 855.031 50.656 850.951 50.656C847.052 50.656 843.743 51.7893 841.023 54.056C838.393 56.3227 836.761 59.5413 836.127 63.712H865.231ZM924.555 8.36V109H901.299V8.36H924.555ZM936.785 70.92C936.785 63.1227 938.235 56.2773 941.137 50.384C944.129 44.4907 948.163 39.9573 953.241 36.784C958.318 33.6107 963.985 32.024 970.241 32.024C975.59 32.024 980.259 33.112 984.249 35.288C988.329 37.464 991.457 40.32 993.633 43.856V33.112H1016.89V109H993.633V98.256C991.366 101.792 988.193 104.648 984.113 106.824C980.123 109 975.454 110.088 970.105 110.088C963.939 110.088 958.318 108.501 953.241 105.328C948.163 102.064 944.129 97.4853 941.137 91.592C938.235 85.608 936.785 78.7173 936.785 70.92ZM993.633 71.056C993.633 65.2533 992.001 60.6747 988.737 57.32C985.563 53.9653 981.665 52.288 977.041 52.288C972.417 52.288 968.473 53.9653 965.209 57.32C962.035 60.584 960.449 65.1173 960.449 70.92C960.449 76.7227 962.035 81.3467 965.209 84.792C968.473 88.1467 972.417 89.824 977.041 89.824C981.665 89.824 985.563 88.1467 988.737 84.792C992.001 81.4373 993.633 76.8587 993.633 71.056ZM1078.59 109L1064.04 87.92L1051.8 109H1026.64L1051.67 70.24L1025.96 33.112H1052.07L1066.63 54.056L1078.87 33.112H1104.03L1078.59 71.328L1104.71 109H1078.59ZM1124.55 110.088C1120.47 110.088 1117.11 108.909 1114.48 106.552C1111.94 104.104 1110.67 101.112 1110.67 97.576C1110.67 93.9493 1111.94 90.912 1114.48 88.464C1117.11 86.016 1120.47 84.792 1124.55 84.792C1128.54 84.792 1131.8 86.016 1134.34 88.464C1136.97 90.912 1138.28 93.9493 1138.28 97.576C1138.28 101.112 1136.97 104.104 1134.34 106.552C1131.8 108.909 1128.54 110.088 1124.55 110.088Z" fill="#F5F5F5"/>
</svg>
