<svg xmlns="http://www.w3.org/2000/svg" version="1.1" xmlns:xlink="http://www.w3.org/1999/xlink" xmlns:svgjs="http://svgjs.com/svgjs" width="512" height="512" x="0" y="0" viewBox="0 0 32 32" style="enable-background:new 0 0 512 512" xml:space="preserve" class=""><g><path d="m29.844 5.523-3.368-3.368a3.947 3.947 0 0 0-5.579 0L2.543 20.509a1.451 1.451 0 0 0-.41.826l-1.119 8.012a1.449 1.449 0 0 0 1.638 1.639l8.012-1.118c.313-.044.603-.188.826-.411l18.354-18.354A3.916 3.916 0 0 0 31 8.313c0-1.054-.41-2.045-1.156-2.79zM9.781 27.06l-5.626.784.785-5.626L18.209 8.949l4.841 4.842zm18.01-18.01-2.688 2.688-4.842-4.842 2.689-2.689a1.068 1.068 0 0 1 1.473 0l3.369 3.37c.197.196.305.458.305.736 0 .278-.108.54-.305.736z" fill="#666666" data-original="#666666" class=""></path></g></svg>