<svg xmlns="http://www.w3.org/2000/svg" version="1.1" xmlns:xlink="http://www.w3.org/1999/xlink" xmlns:svgjs="http://svgjs.com/svgjs" width="512" height="512" x="0" y="0" viewBox="0 0 32 32" style="enable-background:new 0 0 512 512" xml:space="preserve" class=""><g><g data-name="Layer 2"><path d="m29.22 20.2-4.32-4.36a.19.19 0 0 0-.17-.07.24.24 0 0 0-.17.08l-2.88 3.05a2 2 0 0 1-1.45.63 2 2 0 0 1-1.45-.63l-6.18-6.59a.24.24 0 0 0-.32 0l-9.62 7.5-1.24-1.61L11 10.7a2.23 2.23 0 0 1 3 .24l6.17 6.59 2.86-3.05a2.22 2.22 0 0 1 1.6-.71 2.18 2.18 0 0 1 1.62.66l4.32 4.36Z" fill="#808080" data-original="#808080" class=""></path><path d="M27.08 31H4.92A3.92 3.92 0 0 1 1 27.08V4.92A3.92 3.92 0 0 1 4.92 1h22.16A3.92 3.92 0 0 1 31 4.92v22.16A3.92 3.92 0 0 1 27.08 31ZM4.92 3A1.92 1.92 0 0 0 3 4.92v22.16A1.92 1.92 0 0 0 4.92 29h22.16A1.92 1.92 0 0 0 29 27.08V4.92A1.92 1.92 0 0 0 27.08 3Z" fill="#808080" data-original="#808080" class=""></path><circle cx="20.33" cy="9.83" r="2" fill="#808080" data-original="#808080" class=""></circle><path d="m2 19.5 9.53-7.67 1.76-.21 5.77 6.16s1 1.37 1.85.43l2.87-3.05s.57-1.25 1.79 0S30 20.5 30 20.5l-.07 7.23S29.63 30 26.69 30s-22-.31-22-.31S2 30.35 2 27.08V19.5Z" fill="#808080" data-original="#808080" class=""></path></g></g></svg>