<svg width="17" height="17" viewBox="0 0 17 17" fill="none" xmlns="http://www.w3.org/2000/svg">
<g clip-path="url(#clip0_607_7175)">
<path d="M12.851 17.0001H4.15619C4.13757 16.9899 4.11983 16.9735 4.09988 16.9708C2.92857 16.7999 1.97006 15.7331 1.99489 14.4368C2.01661 13.3075 1.99932 12.1777 1.99932 11.0483C1.99932 10.9728 2.01306 10.908 1.90046 10.8756C0.827565 10.5675 0.202451 9.8559 0.02201 8.75272C-0.13449 7.79471 0.562002 6.96411 1.52583 6.96367C6.18138 6.96278 10.8365 6.96234 15.492 6.96411C16.122 6.96411 16.5742 7.26687 16.8575 7.82268C16.9218 7.94831 16.9533 8.09082 16.9998 8.22533V8.75716C16.9896 8.78246 16.9746 8.80644 16.9701 8.83263C16.7782 9.87942 16.1672 10.5546 15.156 10.8627C15.0323 10.9005 15.0057 10.948 15.0061 11.0638C15.0097 12.2158 15.0097 13.3679 15.0079 14.5194C15.0061 15.6523 14.2272 16.6521 13.1352 16.9269C13.0408 16.9508 12.9464 16.9757 12.8519 16.9997L12.851 17.0001ZM1.99311 7.96207C1.80691 7.96207 1.6309 7.9492 1.45711 7.96518C1.18756 7.99004 1.00003 8.21334 1.0049 8.48592C1.00668 8.57381 1.01732 8.6626 1.03638 8.74828C1.15608 9.28233 1.47396 9.64458 1.99267 9.85456V7.96207H1.99311ZM15.0216 7.95941C15.0216 8.58846 15.0216 9.21352 15.0216 9.83814C15.578 9.68143 16.0307 9.06125 15.9988 8.41844C15.9859 8.15652 15.7682 7.97007 15.4987 7.9603C15.3444 7.95497 15.1901 7.95941 15.0216 7.95941Z" fill="#FFA500"/>
<path d="M5.92607 3.34386C5.44017 2.12171 6.09321 1.06826 6.92493 0.691359C7.78634 0.301141 8.9745 0.540866 9.5677 1.66846C9.79558 1.56635 10.0257 1.46425 10.2549 1.36037C11.2152 0.9262 12.1737 0.488037 13.1379 0.0623048C13.2612 0.00814488 13.4177 -0.01272 13.5507 0.00770095C13.7564 0.0392202 13.8969 0.231887 13.912 0.43077C13.9293 0.655844 13.8278 0.840965 13.6159 0.940406C13.1916 1.13973 12.7642 1.33284 12.3377 1.52817C9.1678 2.97984 5.99834 4.43239 2.82577 5.87784C2.69854 5.93555 2.53627 5.95952 2.39839 5.93999C2.19224 5.91113 2.05125 5.71802 2.03529 5.51914C2.01667 5.28874 2.12263 5.10628 2.34563 5.0024C2.94592 4.72317 3.54798 4.44704 4.1496 4.16958C4.69092 3.91965 5.2318 3.67015 5.77312 3.41978C5.82189 3.39714 5.86977 3.37183 5.92652 3.34386H5.92607Z" fill="#FFA500"/>
<path d="M10.5992 5.97186C10.2672 5.96876 10.0428 5.78186 10.0318 5.49242C10.0198 5.18699 10.2211 4.98899 10.5633 4.9668C10.6183 4.96325 10.6728 4.95259 10.7274 4.94416C11.227 4.86603 11.3542 4.75327 11.4274 4.16816C11.4593 3.91112 11.47 3.64832 11.532 3.39838C11.7094 2.68587 12.2024 2.27789 12.9707 2.17845C13.0908 2.16291 13.2123 2.14693 13.3329 2.14649C13.6149 2.1456 13.8352 2.35691 13.845 2.62727C13.8551 2.90117 13.6534 3.11826 13.3688 3.14223C13.2974 3.14845 13.226 3.15777 13.1551 3.16665C12.6577 3.22969 12.491 3.41259 12.4475 3.91778C12.4254 4.17571 12.4063 4.43763 12.3469 4.68845C12.1775 5.40452 11.7063 5.81072 10.9437 5.92747C10.8293 5.94478 10.7141 5.95677 10.5992 5.97098V5.97186Z" fill="#FFA500"/>
<path d="M13.5865 5.97146C13.254 5.9688 13.0296 5.78279 13.0181 5.49335C13.0057 5.18837 13.2079 4.9886 13.5488 4.96684C13.6038 4.96329 13.6583 4.95308 13.7128 4.9442C14.2072 4.86696 14.3455 4.75997 14.4151 4.15267C14.4439 3.90096 14.4572 3.64392 14.5184 3.39976C14.6962 2.6868 15.1878 2.27838 15.9562 2.17894C16.0763 2.1634 16.1978 2.14742 16.3184 2.14698C16.6008 2.14609 16.8211 2.35651 16.8313 2.62687C16.842 2.90077 16.6407 3.11875 16.3565 3.14316C16.2794 3.14982 16.2027 3.16003 16.126 3.16935C15.6604 3.22795 15.4822 3.41529 15.437 3.88498C15.4139 4.12692 15.4051 4.37242 15.3537 4.60859C15.1834 5.38902 14.7245 5.80677 13.931 5.92885C13.8166 5.9466 13.7013 5.9577 13.5865 5.97191V5.97146Z" fill="#FFA500"/>
</g>
<defs>
<clipPath id="clip0_607_7175">
<rect width="17" height="17" fill="white"/>
</clipPath>
</defs>
</svg>
