<svg width="134" height="220" viewBox="0 0 134 220" fill="none" xmlns="http://www.w3.org/2000/svg">
<path d="M17.1588 183.339C18.1977 183.303 19.2004 182.949 20.0312 182.325C20.8619 181.701 21.4804 180.838 21.803 179.851C22.1256 178.865 22.1366 177.804 21.8345 176.812C21.5325 175.819 20.9319 174.944 20.1143 174.303C19.946 173.808 19.8252 173.453 19.6569 172.958C19.6936 172.844 19.7306 172.73 19.7678 172.617C23.5249 161.172 39.2987 159.972 44.8082 170.685C49.6983 180.193 55.7082 189.627 57.8332 199.926C58.7705 204.479 58.9091 209.159 58.2429 213.76C66.1661 192.052 69.3195 168.899 67.4892 145.872C67.0238 140.094 66.2351 134.347 65.1267 128.657C64.2137 123.993 63.0973 119.379 61.7775 114.815C54.5868 90.0551 41.6119 67.3522 23.9182 48.571C15.7982 44.9659 8.98167 38.9634 4.3873 31.3724C2.72467 28.6446 1.46661 25.6909 0.652228 22.6031C1.53884 22.6469 2.43643 22.6466 3.31837 22.6329C3.59283 22.6252 3.88164 22.6162 4.15613 22.6085L4.25957 22.6048C5.2273 22.57 6.16443 22.2568 6.95812 21.7029C7.75179 21.1491 8.36818 20.3782 8.73311 19.4831C9.09803 18.588 9.19593 17.6068 9.01498 16.6576C8.83405 15.7085 8.38199 14.8318 7.71325 14.1333C7.29681 13.6988 6.88014 13.2645 6.46329 12.8305C5.82986 12.1594 5.1833 11.5039 4.55 10.833C4.47809 10.7702 4.40982 10.7033 4.34558 10.6327C3.61768 9.86823 2.89121 9.11813 2.16333 8.35362C3.21974 6.38563 4.71738 4.68754 6.53944 3.39179C12.8566 -1.01932 22.2212 0.924368 27.4948 6.52132C32.7827 12.117 34.3679 20.4392 33.3044 28.051C32.398 34.5668 29.7662 40.6876 26.7227 46.5528C27.1195 46.983 27.5295 47.3976 27.9261 47.8278C35.1814 55.7295 41.6428 64.3219 47.2177 73.4818C45.0023 63.0016 45.9764 50.0811 48.731 41.5804C51.866 31.895 58.5244 23.4129 64.2948 14.7923C71.226 4.43771 87.3965 7.40399 89.754 19.6286C89.7768 19.747 89.7993 19.8653 89.8215 19.9837C88.9106 20.5981 88.0224 21.2439 87.1571 21.9211C86.0707 22.7795 85.2693 23.9453 84.8581 25.2657C84.4469 26.5861 84.4449 27.9995 84.8525 29.3208C85.26 30.642 86.0581 31.8094 87.1422 32.6701C88.2262 33.5308 89.5456 34.0446 90.9276 34.1441L91.0691 34.1544C91.0067 37.6141 90.6809 41.0641 90.0943 44.4747C88.3661 54.0033 84.6838 63.0737 79.2783 71.1171C73.8729 79.1605 66.8608 86.0035 58.6817 91.2171C58.1439 91.5495 57.6205 91.8807 57.0816 92.1988C63.0104 105.452 67.1866 119.419 69.5052 133.749C70.8456 142.205 71.4986 150.755 71.4576 159.317C71.4639 159.215 71.4701 159.114 71.4764 159.012C72.5527 149.408 76.9176 140.468 83.8337 133.702C94.1167 123.784 109.407 119.202 120.702 110.985C126.138 107.029 133.832 110.95 133.369 117.647C133.362 117.754 133.354 117.861 133.346 117.968C131.633 118.831 129.976 119.799 128.384 120.868C127.473 121.482 126.585 122.128 125.719 122.805C124.633 123.664 123.832 124.83 123.42 126.15C123.009 127.47 123.007 128.884 123.415 130.205C123.822 131.526 124.62 132.694 125.704 133.554C126.788 134.415 128.108 134.929 129.49 135.028L129.631 135.039C129.733 135.045 129.821 135.052 129.922 135.058C127.479 142.513 123.769 149.493 118.953 155.692C112.992 163.207 105.557 169.428 97.1021 173.974C88.6474 178.52 79.3517 181.296 69.7851 182.131L69.7707 182.132C68.0837 193.608 65.2061 204.878 61.1843 215.761L21.056 219.007C20.8761 218.574 20.7096 218.125 20.5441 217.691C24.2773 217.623 27.9883 217.1 31.5944 216.132C28.3222 212.728 25.0479 209.295 21.7757 205.891C21.7038 205.828 21.6356 205.761 21.5713 205.69C19.9102 203.947 18.2359 202.219 16.5748 200.476L16.5738 200.473C16.0307 194.761 16.2269 189.003 17.1576 183.34L17.1588 183.339Z" fill="#F7F7F7"/>
</svg>
