<svg width="287" height="489" viewBox="0 0 287 489" fill="none" xmlns="http://www.w3.org/2000/svg">
<path d="M279.338 402.285C277.047 402.57 274.723 402.145 272.683 401.069C270.642 399.992 268.982 398.314 267.929 396.265C266.876 394.215 266.479 391.891 266.794 389.608C267.108 387.326 268.118 385.195 269.687 383.504C269.883 382.359 270.023 381.537 270.218 380.392C270.098 380.155 269.977 379.919 269.856 379.683C257.602 355.897 222.586 358.799 214.259 384.227C206.868 406.796 196.996 429.596 195.947 452.931C195.488 463.245 196.826 473.56 199.9 483.417C174.91 438.583 159.874 388.907 155.813 337.759C154.807 324.923 154.521 312.041 154.957 299.172C155.324 288.622 156.154 278.111 157.448 267.638C164.535 210.809 185.03 156.464 217.25 109.065C233.794 98.3105 246.639 82.7546 254.054 64.4938C256.743 57.9277 258.467 51.008 259.17 43.9499C257.241 44.3571 255.272 44.671 253.333 44.9505C252.728 45.0296 252.092 45.1113 251.487 45.1907L251.259 45.2188C249.124 45.4818 246.959 45.1235 245.024 44.1871C243.089 43.2507 241.467 41.7761 240.353 39.9408C239.238 38.1054 238.68 35.9877 238.744 33.8424C238.807 31.6972 239.492 29.6159 240.713 27.8492C241.474 26.7501 242.236 25.6515 242.998 24.5534C244.152 22.8594 245.34 21.1949 246.493 19.5012C246.629 19.3383 246.755 19.1677 246.872 18.9903C248.2 17.0582 249.53 15.1582 250.858 13.2261C247.851 9.28018 243.971 6.08094 239.521 3.87793C224.119 -3.58163 204.262 3.96571 194.658 18.0911C185.023 32.2188 184.465 51.0281 189.467 67.3502C193.74 81.3236 201.659 93.8256 210.391 105.622C209.672 106.705 208.918 107.758 208.199 108.841C195.058 128.716 183.9 149.828 174.885 171.874C176.068 148.111 169.401 120.114 160.378 102.435C150.106 82.2909 132.528 66.022 116.849 49.1379C98.0159 28.8577 63.5907 41.0348 62.7074 68.6743C62.6988 68.9419 62.691 69.2093 62.6838 69.4766C64.8973 70.5049 67.0717 71.6098 69.2069 72.7916C71.8908 74.2934 74.0571 76.5694 75.4221 79.3212C76.7871 82.073 77.2871 85.1724 76.8566 88.2132C76.4261 91.2541 75.0851 94.0945 73.0095 96.3625C70.9338 98.6304 68.2201 100.22 65.2241 100.923L64.9174 100.995C66.2675 108.561 68.1921 116.014 70.6746 123.289C77.8067 143.582 89.0637 162.185 103.74 177.931C118.416 193.677 136.195 206.227 155.962 214.794C157.258 215.334 158.522 215.877 159.816 216.386C151.46 247.534 147.199 279.633 147.14 311.875C147.165 330.892 148.732 349.876 151.825 368.64C151.775 368.419 151.726 368.198 151.676 367.978C145.948 347.291 133.239 329.214 115.698 316.798C89.6668 298.651 54.524 293.963 26.8715 279.901C13.5604 273.132 -1.93904 284.43 1.42501 298.956C1.47873 299.188 1.53301 299.42 1.58785 299.652C5.64731 300.944 9.62207 302.487 13.489 304.273C15.7025 305.301 17.8769 306.406 20.0121 307.587C22.696 309.089 24.8623 311.365 26.2273 314.117C27.5923 316.869 28.0923 319.968 27.6618 323.009C27.2313 326.05 25.8903 328.891 23.8146 331.158C21.739 333.426 19.0254 335.016 16.0294 335.719L15.7223 335.791C15.5012 335.84 15.3119 335.887 15.0911 335.937C23.0635 351.43 33.6494 365.437 46.3853 377.346C62.0936 391.737 80.5833 402.775 100.721 409.781C120.858 416.788 142.219 419.616 163.493 418.092L163.526 418.089C171.25 442.668 181.514 466.378 194.151 488.837L283.299 481.884C283.542 480.87 283.75 479.827 283.96 478.817C275.749 479.978 267.426 480.132 259.178 479.274C265.161 470.66 271.138 461.982 277.121 453.367C277.257 453.204 277.383 453.034 277.499 452.857C280.531 448.45 283.597 444.073 286.629 439.667L286.63 439.661C285.818 426.942 283.368 414.381 279.341 402.287L279.338 402.285Z" fill="#F7F7F7"/>
</svg>
