<svg width="82" height="82" viewBox="0 0 82 82" fill="none" xmlns="http://www.w3.org/2000/svg">
<g filter="url(#filter0_d_269_550)">
<rect width="46" height="46" rx="23" transform="matrix(-1 0 0 1 59 8)" fill="white"/>
<rect x="-0.5" y="0.5" width="45" height="45" rx="22.5" transform="matrix(-1 0 0 1 58 8)" stroke="black"/>
</g>
<path fillRule="evenodd" clip-rule="evenodd" d="M32.8223 23.7163C33.117 23.6181 33.4355 23.7774 33.5338 24.0721C33.632 24.3668 33.4727 24.6854 33.178 24.7836L33.0626 24.8221C31.8868 25.214 30.9642 26.1366 30.5723 27.3124L30.5338 27.4278C30.4355 27.7226 30.117 27.8818 29.8223 27.7836C29.5276 27.6854 29.3683 27.3668 29.4665 27.0721L29.505 26.9566C30.0089 25.4449 31.1951 24.2587 32.7068 23.7548L32.8223 23.7163ZM39.178 23.7163C38.8833 23.6181 38.5647 23.7774 38.4665 24.0721C38.3682 24.3668 38.5275 24.6854 38.8222 24.7836L38.9377 24.8221C40.1134 25.214 41.0361 26.1366 41.428 27.3124L41.4665 27.4278C41.5647 27.7226 41.8833 27.8818 42.178 27.7836C42.4727 27.6854 42.632 27.3668 42.5337 27.0721L42.4952 26.9566C41.9913 25.4449 40.8051 24.2587 39.2934 23.7548L39.178 23.7163ZM36.0001 25C33.5783 25 31.5405 26.8681 31.2598 29.3455L31.0012 31.6289C30.9369 32.1962 30.707 32.7302 30.3417 33.16C29.5667 34.0723 30.1957 35.5 31.3727 35.5H40.6275C41.8045 35.5 42.4336 34.0723 41.6585 33.16C41.2933 32.7302 41.0633 32.1962 40.9991 31.6289L40.7404 29.3455C40.4598 26.8681 38.4219 25 36.0001 25ZM36.0001 38.5C37.0175 38.5 37.8862 37.8994 38.2292 37.0536C38.2435 37.0184 38.2501 36.9805 38.2501 36.9425C38.2501 36.7671 38.108 36.625 37.9327 36.625H34.0676C33.8923 36.625 33.7501 36.7671 33.7501 36.9425C33.7501 36.9805 33.7567 37.0184 33.771 37.0536C34.1141 37.8994 34.9827 38.5 36.0001 38.5Z" fill="black"/>
<defs>
<filter id="filter0_d_269_550" x="0" y="0" width="82" height="82" filterUnits="userSpaceOnUse" color-interpolation-filters="sRGB">
<feFlood flood-opacity="0" result="BackgroundImageFix"/>
<feColorMatrix in="SourceAlpha" type="matrix" values="0 0 0 0 0 0 0 0 0 0 0 0 0 0 0 0 0 0 127 0" result="hardAlpha"/>
<feOffset dx="5" dy="10"/>
<feGaussianBlur stdDeviation="9"/>
<feComposite in2="hardAlpha" operator="out"/>
<feColorMatrix type="matrix" values="0 0 0 0 0 0 0 0 0 0 0 0 0 0 0 0 0 0 0.04 0"/>
<feBlend mode="normal" in2="BackgroundImageFix" result="effect1_dropShadow_269_550"/>
<feBlend mode="normal" in="SourceGraphic" in2="effect1_dropShadow_269_550" result="shape"/>
</filter>
</defs>
</svg>
