<svg width="652" height="134" viewBox="0 0 652 134" fill="none" xmlns="http://www.w3.org/2000/svg">
<path d="M50.0018 97.952C41.0258 97.952 32.7751 95.8666 25.2498 91.696C17.8151 87.5253 11.8764 81.7226 7.43376 74.288C3.08176 66.7626 0.905762 58.3306 0.905762 48.992C0.905762 39.6533 3.08176 31.2666 7.43376 23.832C11.8764 16.3973 17.8151 10.5946 25.2498 6.42397C32.7751 2.2533 41.0258 0.167969 50.0018 0.167969C58.9778 0.167969 67.1831 2.2533 74.6178 6.42397C82.1431 10.5946 88.0364 16.3973 92.2978 23.832C96.6498 31.2666 98.8258 39.6533 98.8258 48.992C98.8258 58.3306 96.6498 66.7626 92.2978 74.288C87.9458 81.7226 82.0524 87.5253 74.6178 91.696C67.1831 95.8666 58.9778 97.952 50.0018 97.952ZM50.0018 76.736C57.6178 76.736 63.6924 74.1973 68.2258 69.12C72.8498 64.0426 75.1618 57.3333 75.1618 48.992C75.1618 40.56 72.8498 33.8506 68.2258 28.864C63.6924 23.7866 57.6178 21.248 50.0018 21.248C42.2951 21.248 36.1298 23.7413 31.5058 28.728C26.9724 33.7146 24.7058 40.4693 24.7058 48.992C24.7058 57.424 26.9724 64.1786 31.5058 69.256C36.1298 74.2426 42.2951 76.736 50.0018 76.736Z" fill="#ECECEC"/>
<path d="M186.7 21.112V97H163.444V86.664C161.086 90.0186 157.868 92.7386 153.788 94.824C149.798 96.8186 145.356 97.816 140.46 97.816C134.657 97.816 129.534 96.5466 125.092 94.008C120.649 91.3786 117.204 87.616 114.756 82.72C112.308 77.824 111.084 72.0666 111.084 65.448V21.112H134.204V62.32C134.204 67.3973 135.518 71.3413 138.148 74.152C140.777 76.9626 144.313 78.368 148.756 78.368C153.289 78.368 156.87 76.9626 159.5 74.152C162.129 71.3413 163.444 67.3973 163.444 62.32V21.112H186.7Z" fill="#ECECEC"/>
<path d="M226.66 33.76C229.38 29.5893 232.78 26.3253 236.86 23.968C240.94 21.52 245.474 20.296 250.46 20.296V44.912H244.068C238.266 44.912 233.914 46.1813 231.012 48.72C228.111 51.168 226.66 55.52 226.66 61.776V97H203.404V21.112H226.66V33.76Z" fill="#ECECEC"/>
<path d="M324.941 97.952C317.959 97.952 311.703 96.8186 306.173 94.552C300.642 92.2853 296.199 88.9306 292.845 84.488C289.581 80.0453 287.858 74.696 287.677 68.44H312.429C312.791 71.976 314.015 74.696 316.101 76.6C318.186 78.4133 320.906 79.32 324.261 79.32C327.706 79.32 330.426 78.5493 332.421 77.008C334.415 75.376 335.413 73.1546 335.413 70.344C335.413 67.9866 334.597 66.0373 332.965 64.496C331.423 62.9546 329.474 61.6853 327.117 60.688C324.85 59.6906 321.586 58.5573 317.325 57.288C311.159 55.384 306.127 53.48 302.229 51.576C298.33 49.672 294.975 46.8613 292.165 43.144C289.354 39.4266 287.949 34.576 287.949 28.592C287.949 19.7066 291.167 12.7706 297.605 7.78397C304.042 2.70663 312.429 0.167969 322.765 0.167969C333.282 0.167969 341.759 2.70663 348.197 7.78397C354.634 12.7706 358.079 19.752 358.533 28.728H333.373C333.191 25.6453 332.058 23.2426 329.973 21.52C327.887 19.7066 325.213 18.8 321.949 18.8C319.138 18.8 316.871 19.5706 315.149 21.112C313.426 22.5626 312.565 24.6933 312.565 27.504C312.565 30.5866 314.015 32.9893 316.917 34.712C319.818 36.4346 324.351 38.2933 330.517 40.288C336.682 42.3733 341.669 44.368 345.477 46.272C349.375 48.176 352.73 50.9413 355.541 54.568C358.351 58.1946 359.757 62.864 359.757 68.576C359.757 74.016 358.351 78.9573 355.541 83.4C352.821 87.8426 348.831 91.3786 343.573 94.008C338.314 96.6373 332.103 97.952 324.941 97.952Z" fill="#ECECEC"/>
<path d="M416.365 77.28V97H404.533C396.101 97 389.527 94.96 384.812 90.88C380.098 86.7093 377.741 79.9546 377.741 70.616V40.424H368.492V21.112H377.741V2.61597H400.997V21.112H416.229V40.424H400.997V70.888C400.997 73.1546 401.541 74.7866 402.629 75.784C403.717 76.7813 405.53 77.28 408.069 77.28H416.365Z" fill="#ECECEC"/>
<path d="M463.863 98.088C456.428 98.088 449.718 96.5013 443.734 93.328C437.841 90.1546 433.172 85.6213 429.727 79.728C426.372 73.8346 424.695 66.944 424.695 59.056C424.695 51.2586 426.417 44.4133 429.863 38.52C433.308 32.536 438.023 27.9573 444.007 24.784C449.991 21.6106 456.7 20.024 464.135 20.024C471.569 20.024 478.279 21.6106 484.263 24.784C490.247 27.9573 494.961 32.536 498.407 38.52C501.852 44.4133 503.575 51.2586 503.575 59.056C503.575 66.8533 501.807 73.744 498.271 79.728C494.825 85.6213 490.065 90.1546 483.991 93.328C478.007 96.5013 471.297 98.088 463.863 98.088ZM463.863 77.96C468.305 77.96 472.068 76.328 475.151 73.064C478.324 69.8 479.91 65.1306 479.91 59.056C479.91 52.9813 478.369 48.312 475.286 45.048C472.294 41.784 468.577 40.152 464.135 40.152C459.601 40.152 455.838 41.784 452.846 45.048C449.854 48.2213 448.359 52.8906 448.359 59.056C448.359 65.1306 449.809 69.8 452.711 73.064C455.703 76.328 459.42 77.96 463.863 77.96Z" fill="#ECECEC"/>
<path d="M539.168 33.76C541.888 29.5893 545.288 26.3253 549.368 23.968C553.448 21.52 557.982 20.296 562.968 20.296V44.912H556.576C550.774 44.912 546.422 46.1813 543.52 48.72C540.619 51.168 539.168 55.52 539.168 61.776V97H515.912V21.112H539.168V33.76Z" fill="#ECECEC"/>
<path d="M651.604 21.112L604.004 133.04H578.98L596.388 94.416L565.516 21.112H591.492L609.036 68.576L626.444 21.112H651.604Z" fill="#ECECEC"/>
</svg>
