<svg xmlns="http://www.w3.org/2000/svg" version="1.1" xmlns:xlink="http://www.w3.org/1999/xlink" xmlns:svgjs="http://svgjs.com/svgjs" width="512" height="512" x="0" y="0" viewBox="0 0 512.001 512" style="enable-background:new 0 0 512 512" xml:space="preserve" class=""><g><path fill="#fce270" d="M434.93 149.813H77.07V22.82c0-8.523 6.907-15.43 15.426-15.43h327.008c8.52 0 15.426 6.907 15.426 15.43zm0 0" data-original="#fce270"></path><path fill="#ffbe7c" d="M419.504 7.39h-46.602c8.52 0 15.426 6.907 15.426 15.43v126.993h46.602V22.82c0-8.523-6.907-15.43-15.426-15.43zm0 0" data-original="#ffbe7c"></path><path fill="#feebca" d="M56.402 504.465V182.03h399.196v322.434zm0 0" data-original="#feebca"></path><path fill="#f9d9af" d="M56.402 182.031v48.864h176.864c95.558 0 173.023 77.464 173.023 173.027v100.543h49.313V182.03zm0 0" data-original="#f9d9af"></path><path fill="#ff5876" d="M419.504 7.39H92.496c-8.52 0-15.426 6.907-15.426 15.43v20.168h357.86V22.82c0-8.523-6.907-15.43-15.426-15.43zm0 0" data-original="#ff5876"></path><path fill="#ed4a79" d="M419.504 7.39h-46.602c8.52 0 15.426 6.907 15.426 15.43v20.168h46.602V22.82c0-8.523-6.907-15.43-15.426-15.43zm0 0" data-original="#ed4a79"></path><path fill="#d5e0f2" d="M216.695 475.105H86.883a4.616 4.616 0 0 0-4.617 4.618v24.742h139.046v-24.742a4.616 4.616 0 0 0-4.617-4.618zm0 0" data-original="#d5e0f2"></path><path fill="#ff5876" d="M197.324 281.7h-91.066a9.367 9.367 0 0 0-9.367 9.366v184.04h109.8v-184.04a9.367 9.367 0 0 0-9.367-9.367zM504.512 155.504H7.488L46.75 97.46a32.452 32.452 0 0 1 26.879-14.27h364.746a32.45 32.45 0 0 1 26.875 14.27zm0 0" data-original="#ff5876"></path><path fill="#e4eef9" d="M449.398 155.504H62.602L93.156 97.46c4.696-8.922 12.531-14.27 20.914-14.27h283.86c8.382 0 16.218 5.348 20.914 14.27zm0 0" data-original="#e4eef9"></path><path fill="#ff5876" d="M393.988 155.504H118.145l21.789-58.043c3.351-8.922 8.937-14.27 14.918-14.27h202.43c5.976 0 11.566 5.348 14.913 14.27zm0 0" data-original="#ff5876"></path><path fill="#e4eef9" d="M339.031 155.504h-165.93l13.106-58.043c2.016-8.922 5.379-14.27 8.973-14.27h121.773c3.594 0 6.957 5.348 8.973 14.27zm0 0" data-original="#e4eef9"></path><path fill="#ff5876" d="M283.621 155.504h-55.11l4.352-58.043c.672-8.922 1.79-14.27 2.98-14.27h40.442c1.195 0 2.313 5.348 2.98 14.27zm0 0" data-original="#ff5876"></path><path fill="#e4eef9" d="M7.508 155.438v32.503c0 15.254 12.363 27.621 27.617 27.621s27.617-12.367 27.617-27.62v-32.505zm0 0" data-original="#e4eef9"></path><path fill="#ff5876" d="M62.742 155.438v32.503c0 15.254 12.367 27.621 27.621 27.621 15.254 0 27.617-12.367 27.617-27.62v-32.505zm0 0" data-original="#ff5876"></path><path fill="#e4eef9" d="M117.98 155.438v32.503c0 15.254 12.368 27.621 27.622 27.621 15.253 0 27.617-12.367 27.617-27.62v-32.505zm0 0" data-original="#e4eef9"></path><path fill="#ff5876" d="M173.219 155.438v32.503c0 15.254 12.367 27.621 27.62 27.621s27.618-12.367 27.618-27.62v-32.505zm0 0" data-original="#ff5876"></path><path fill="#e4eef9" d="M228.457 155.438v32.503c0 15.254 12.363 27.621 27.617 27.621 15.254 0 27.621-12.367 27.621-27.62v-32.505zm0 0" data-original="#e4eef9"></path><path fill="#ff5876" d="M283.695 155.438v32.503c0 15.254 12.364 27.621 27.618 27.621s27.62-12.367 27.62-27.62v-32.505zm0 0" data-original="#ff5876"></path><path fill="#e4eef9" d="M338.93 155.438v32.503c0 15.254 12.367 27.621 27.62 27.621 15.255 0 27.618-12.367 27.618-27.62v-32.505zm0 0" data-original="#e4eef9"></path><path fill="#ff5876" d="M394.168 155.438v32.503c0 15.254 12.367 27.621 27.621 27.621 15.254 0 27.617-12.367 27.617-27.62v-32.505zm0 0" data-original="#ff5876"></path><path fill="#e4eef9" d="M449.406 155.438v32.503c0 15.254 12.364 27.621 27.617 27.621 15.254 0 27.622-12.367 27.622-27.62v-32.505zm0 0" data-original="#e4eef9"></path><path fill="#10c6ff" d="M435.871 416.55H313.777c-8.515 0-15.422-6.902-15.422-15.421v-7.469c0-.855.696-1.55 1.551-1.55h149.84c.856 0 1.55.695 1.55 1.55v7.469c-.003 8.516-6.905 15.422-15.425 15.422zm0 0" data-original="#10c6ff"></path><path fill="#91a0b5" d="M349.918 392.11c0-17.61 11.555-31.887 25.809-31.887 14.257 0 25.812 14.277 25.812 31.886" data-original="#91a0b5"></path><path d="M504.352 496.93H493.25V343.262a7.503 7.503 0 1 0-15.004 0v96.715h-41.512c-7.195 0-13.046 5.613-13.046 12.511v44.442h-16.493c.465-1.711.739-3.5.739-5.356a7.503 7.503 0 1 0-15.004 0c0 2.953-2.403 5.356-5.356 5.356s-5.355-2.403-5.355-5.356v-67.531h53.527c12.637 0 22.918-10.281 22.918-22.918v-7.469c0-4.988-4.059-9.047-9.05-9.047h-41.305c-2.508-15.3-12.524-27.457-25.317-30.894a7.497 7.497 0 0 0-7.375-6.149c-3.68 0-6.734 2.653-7.37 6.149-12.794 3.437-22.813 15.594-25.317 30.894h-43.11c-4.992 0-9.05 4.059-9.05 9.047v7.469c0 12.637 10.28 22.918 22.917 22.918h53.528v67.531c0 2.953-2.403 5.356-5.356 5.356s-5.355-2.403-5.355-5.356a7.503 7.503 0 1 0-15.004 0c0 1.856.27 3.645.738 5.356h-14.687v-44.442c0-6.898-5.852-12.511-13.047-12.511h-41.512v-96.715a7.503 7.503 0 1 0-15.004 0V496.93H228.75V479.7c0-6.684-5.438-12.118-12.117-12.118h-2.5v-105.05a7.502 7.502 0 0 0-15.004 0v105.05h-94.77V291.094c0-1.028.836-1.864 1.864-1.864h91.043c1.027 0 1.863.836 1.863 1.864v36.43a7.502 7.502 0 0 0 15.004 0v-36.43c0-9.297-7.567-16.867-16.867-16.867h-91.043c-9.301 0-16.868 7.57-16.868 16.867v176.488h-2.5c-6.68 0-12.117 5.434-12.117 12.117v17.23H63.887v-42.71a7.503 7.503 0 0 0-15.004 0v42.71H7.5a7.502 7.502 0 0 0 0 15.005h496.852a7.503 7.503 0 1 0 0-15.004zm-128.73-129.196c8.124 0 15.03 7.094 17.41 16.875h-34.825c2.383-9.78 9.285-16.875 17.414-16.875zm-69.852 33.391v-1.516h137.894v1.516c0 4.367-3.55 7.918-7.914 7.918H313.687c-4.367 0-7.917-3.55-7.917-7.918zm132.921 53.852h39.555v41.953h-39.555zm-165.699 0h39.559v41.953h-39.559zM89.742 496.93v-14.348H213.75v14.348zm0 0" fill="#000000" data-original="#000000"></path><path d="m509.766 150.168-38.438-56.824a39.866 39.866 0 0 0-29.02-17.34V22.926C442.309 10.286 432.024 0 419.384 0H92.473C79.828 0 69.547 10.285 69.547 22.926v53.078a39.867 39.867 0 0 0-29.024 17.34L1.61 150.879a7.472 7.472 0 0 0-1.468 3.207c-.028.133-.04.266-.059.398-.02.121-.035.243-.047.371a7.887 7.887 0 0 0-.031.747V188c0 19.36 15.75 35.113 35.11 35.113 4.886 0 9.538-1.008 13.769-2.816v198.746a7.503 7.503 0 0 0 15.004 0V211.051c6.441 7.383 15.906 12.062 26.453 12.062 11.195 0 21.176-5.273 27.61-13.46 6.433 8.187 16.413 13.46 27.609 13.46 11.195 0 21.175-5.273 27.613-13.46 6.43 8.187 16.414 13.46 27.61 13.46s21.175-5.273 27.609-13.46c6.433 8.187 16.414 13.46 27.613 13.46 11.195 0 21.176-5.273 27.61-13.46 6.433 8.187 16.413 13.46 27.609 13.46 11.199 0 21.18-5.273 27.613-13.46 6.434 8.187 16.414 13.46 27.61 13.46 11.195 0 21.175-5.273 27.609-13.46 6.433 8.187 16.418 13.46 27.613 13.46 10.46 0 19.863-4.605 26.3-11.89V355.07a7.502 7.502 0 0 0 15.005 0V220.227a34.891 34.891 0 0 0 13.918 2.886C496.25 223.113 512 207.36 512 188v-32.496a7.474 7.474 0 0 0-2.234-5.336zM114.039 90.781h20.625a44.829 44.829 0 0 0-1.793 4.13l-19.93 53.093H75.047l24.719-46.965c3.382-6.422 8.718-10.258 14.273-10.258zm298.047 10.258 24.723 46.965h-37.766l-19.93-53.094a43.79 43.79 0 0 0-1.793-4.129h20.492c5.56 0 10.895 3.836 14.274 10.258zm-47.016-.86 17.95 47.825h-38.106l-11.766-52.11a55.63 55.63 0 0 0-1.41-5.113h25.442c2.101 0 5.465 2.942 7.89 9.399zm-46.554-.98 11.02 48.805h-39.044l-3.824-51.02c-.156-2.046-.313-4.152-.547-6.203h29.293c.746 1.086 2.024 3.653 3.102 8.418zm-46.809-1.094 3.742 49.899h-38.914l3.742-49.899c.25-3.296.528-5.66.778-7.324h29.879c.25 1.664.527 4.028.773 7.324zm-46.39-1.12-3.825 51.019H182.45l11.024-48.805c1.074-4.765 2.351-7.332 3.097-8.418h29.293c-.23 2.051-.39 4.156-.547 6.203zm-46.477-1.09-11.77 52.109h-38.105l17.953-47.82c2.426-6.461 5.789-9.403 7.89-9.403h25.442a54.413 54.413 0 0 0-1.41 5.114zm280.066 5.851 31.285 46.258h-36.43L425.36 94.05a39.573 39.573 0 0 0-1.937-3.27h14.824a24.918 24.918 0 0 1 20.66 10.965zM92.473 15.004h326.91c4.37 0 7.922 3.555 7.922 7.922V35.59h-44.57a7.5 7.5 0 0 0-7.5 7.5 7.5 7.5 0 0 0 7.5 7.5h44.57V75.78H84.547V50.59h261a7.5 7.5 0 0 0 7.5-7.5 7.5 7.5 0 0 0-7.5-7.504h-261v-12.66c0-4.371 3.555-7.922 7.926-7.922zm-39.524 86.742a24.907 24.907 0 0 1 20.656-10.965H88.43a40.695 40.695 0 0 0-1.938 3.27L58.09 148.004H21.66zM15.004 188v-24.926h40.223V188c0 11.09-9.024 20.113-20.114 20.113-11.086 0-20.11-9.023-20.11-20.113zm75.332 20.11c-11.09 0-20.11-9.02-20.11-20.11v-24.926h40.223V188c-.004 11.09-9.023 20.11-20.113 20.11zm55.223 0c-11.09 0-20.11-9.02-20.11-20.11v-24.926h40.219V188c0 11.09-9.023 20.11-20.11 20.11zm55.222 0c-11.09 0-20.11-9.02-20.11-20.11v-24.926h40.22V188c0 11.09-9.024 20.11-20.11 20.11zm55.219 0c-11.09 0-20.11-9.02-20.11-20.11v-24.926h40.223V188c0 11.09-9.023 20.11-20.113 20.11zm55.223 0c-11.09 0-20.11-9.02-20.11-20.11v-24.926h40.223V188c0 11.09-9.024 20.11-20.113 20.11zm55.222 0c-11.09 0-20.11-9.02-20.11-20.11v-24.926h40.22V188c0 11.09-9.024 20.11-20.11 20.11zm55.22 0c-11.087 0-20.11-9.02-20.11-20.11v-24.926h40.222V188c0 11.09-9.023 20.11-20.113 20.11zm55.222 0c-11.086 0-20.11-9.02-20.11-20.11v-24.926H497V188c0 11.09-9.023 20.11-20.113 20.11zm0 0" fill="#000000" data-original="#000000"></path><path d="M186.078 380.555a7.503 7.503 0 0 1-15.004 0 7.5 7.5 0 0 1 7.5-7.5 7.5 7.5 0 0 1 7.504 7.5zm0 0" fill="#000000" data-original="#000000"></path></g></svg>