<svg width="41" height="41" viewBox="0 0 41 41" fill="none" xmlns="http://www.w3.org/2000/svg">
<circle cx="20.5" cy="20.5" r="20" fill="#333333" stroke="white"/>
<path fillRule="evenodd" clip-rule="evenodd" d="M17.0625 14.4375C15.095 14.4375 13.5 16.0325 13.5 18V24C13.5 25.9675 15.095 27.5625 17.0625 27.5625H22.5C24.4675 27.5625 26.0625 25.9675 26.0625 24C26.0625 23.6893 25.8107 23.4375 25.5 23.4375C25.1893 23.4375 24.9375 23.6893 24.9375 24C24.9375 25.3462 23.8462 26.4375 22.5 26.4375H19.0981C19.6962 25.8003 20.0625 24.9429 20.0625 24V18C20.0625 17.0571 19.6962 16.1997 19.0981 15.5625H22.5C23.8462 15.5625 24.9375 16.6538 24.9375 18C24.9375 18.3107 25.1893 18.5625 25.5 18.5625C25.8107 18.5625 26.0625 18.3107 26.0625 18C26.0625 16.0325 24.4675 14.4375 22.5 14.4375H17.0625ZM26.3598 22.8977C26.1402 22.6781 26.1402 22.3219 26.3598 22.1023L26.8996 21.5625H22.3125C22.0018 21.5625 21.75 21.3107 21.75 21C21.75 20.6893 22.0018 20.4375 22.3125 20.4375H26.8996L26.3598 19.8977C26.1402 19.6781 26.1402 19.3219 26.3598 19.1023C26.5795 18.8826 26.9357 18.8826 27.1553 19.1023L28.125 20.0719C28.6376 20.5845 28.6376 21.4155 28.125 21.9281L27.1553 22.8977C26.9357 23.1174 26.5795 23.1174 26.3598 22.8977Z" fill="white"/>
</svg>
