<svg width="16" height="16" viewBox="0 0 16 16" fill="none" xmlns="http://www.w3.org/2000/svg">
<path d="M1.13935 2.92352C0.789088 3.97549 0.789084 6.78074 4.99217 10.9886C9.19526 15.1965 11.8892 15.2326 13.0481 14.8458C13.6698 14.6384 14.3301 13.7453 14.8086 12.9619C15.2288 12.274 14.9258 11.4026 14.2054 11.0419L11.7832 9.82948C11.4803 9.67783 11.1209 9.69164 10.8305 9.86611L9.65008 10.5752C9.58064 10.6169 9.50877 10.6656 9.42809 10.6585C9.20426 10.6387 8.59711 10.3898 7.09372 8.88467C5.59037 7.37962 5.34169 6.77177 5.32192 6.54767C5.3148 6.46689 5.36351 6.39492 5.40518 6.32539L6.11341 5.14366C6.28768 4.85288 6.30148 4.49313 6.15 4.18983L4.95623 1.79957C4.5892 1.06468 3.69501 0.766252 3.00031 1.20373C2.2144 1.69865 1.32658 2.36119 1.13935 2.92352Z" fill="#F9B405"/>
</svg>
