<svg width="18" height="18" viewBox="0 0 18 18" fill="none" xmlns="http://www.w3.org/2000/svg">
<path fill-rule="evenodd" clip-rule="evenodd" d="M8.75 1.5V4.75L8.74999 4.80441C8.74991 5.22848 8.74983 5.6406 8.79553 5.98052C8.84705 6.36372 8.97257 6.801 9.33579 7.16421C9.699 7.52743 10.1363 7.65295 10.5195 7.70447C10.8594 7.75017 11.2715 7.75009 11.6956 7.75001H11.6956L11.75 7.75H15V12C15 14.1213 15 15.182 14.341 15.841C13.682 16.5 12.6213 16.5 10.5 16.5H7.5C5.37868 16.5 4.31802 16.5 3.65901 15.841C3 15.182 3 14.1213 3 12V6C3 3.87868 3 2.81802 3.65901 2.15901C4.31802 1.5 5.37868 1.5 7.5 1.5H8.75ZM10.75 1.51573V4.75C10.75 5.24967 10.7521 5.52383 10.7777 5.71402L10.7787 5.72131L10.786 5.72231C10.9762 5.74788 11.2503 5.75 11.75 5.75H14.9843C14.9695 5.5711 14.941 5.43058 14.8858 5.2973C14.7716 5.02164 14.5549 4.80487 14.1213 4.37132L12.1287 2.37868C11.6951 1.94513 11.4784 1.72836 11.2027 1.61418C11.0694 1.55897 10.9289 1.53046 10.75 1.51573ZM5.75 9.75C5.75 9.19772 6.19772 8.75 6.75 8.75L11.25 8.75C11.8023 8.75 12.25 9.19772 12.25 9.75C12.25 10.3023 11.8023 10.75 11.25 10.75L6.75 10.75C6.19772 10.75 5.75 10.3023 5.75 9.75ZM6.75 11.75C6.19772 11.75 5.75 12.1977 5.75 12.75C5.75 13.3023 6.19772 13.75 6.75 13.75H9.75C10.3023 13.75 10.75 13.3023 10.75 12.75C10.75 12.1977 10.3023 11.75 9.75 11.75H6.75Z" fill="#F8A500"/>
</svg>
