<svg xmlns="http://www.w3.org/2000/svg" version="1.1" xmlns:xlink="http://www.w3.org/1999/xlink" xmlns:svgjs="http://svgjs.com/svgjs" width="512" height="512" x="0" y="0" viewBox="0 0 682.667 682.667" style="enable-background:new 0 0 512 512" xml:space="preserve" class=""><g><defs><clipPath id="a" clipPathUnits="userSpaceOnUse"><path d="M0 512h512V0H0Z" fill="#000000" data-original="#000000"></path></clipPath></defs><g clip-path="url(#a)" transform="matrix(1.33333 0 0 -1.33333 0 682.667)"><path d="M0 0c0-12.931-7.763-23.414-17.34-23.414s-15.14 12.039-15.14 24.97 5.563 21.859 15.14 21.859C-7.763 23.415 0 12.932 0 0" style="fill-opacity:1;fill-rule:nonzero;stroke:none" transform="translate(362.98 265.273)" fill="#e8916f" data-original="#e8916f" class=""></path><path d="M0 0c0-12.931 7.763-23.414 17.34-23.414s15.14 12.039 15.14 24.97-5.563 21.859-15.14 21.859C7.763 23.415 0 12.932 0 0" style="fill-opacity:1;fill-rule:nonzero;stroke:none" transform="translate(472.02 265.273)" fill="#d98868" data-original="#d98868"></path><path d="M435.183 135.924h-35.366v56.762h35.366z" style="fill-opacity:1;fill-rule:nonzero;stroke:none" fill="#d98868" data-original="#d98868"></path><path d="M0 0v47.97c0 33.179 26.897 60.076 60.077 60.076h7.164c33.179 0 60.076-26.897 60.076-60.076V0c0-35.158-28.501-63.659-63.658-63.659C28.501-63.659 0-35.158 0 0" style="fill-opacity:1;fill-rule:nonzero;stroke:none" transform="translate(353.841 243.573)" fill="#ebad88" data-original="#ebad88" class=""></path><path d="M0 0h-7.164a60.39 60.39 0 0 1-7.028-.424c29.866-3.493 53.049-28.944 53.049-59.84v-47.584c0-31.64-22.942-57.902-53.049-62.969a63.866 63.866 0 0 1 10.61-.888c35.158 0 63.659 28.59 63.659 63.857v47.584C60.077-26.981 33.179 0 0 0" style="fill-opacity:1;fill-rule:nonzero;stroke:none" transform="translate(421.082 351.62)" fill="#e8916f" data-original="#e8916f" class=""></path><path d="M0 0v-11.991h-165.512V0c0 34.866 24.479 63.13 54.678 63.13h56.156C-24.479 63.13 0 34.866 0 0" style="fill-opacity:1;fill-rule:nonzero;stroke:none" transform="translate(500.256 93.991)" fill="#47d5e6" data-original="#47d5e6"></path><path d="M0 0h-30C.198 0 24.678-28.264 24.678-63.13v-11.991h30v11.991C54.678-28.264 30.198 0 0 0" style="fill-opacity:1;fill-rule:nonzero;stroke:none" transform="translate(445.578 157.121)" fill="#22c0d4" data-original="#22c0d4"></path><path d="M0 0h53.013L26.506-75.121Z" style="fill-opacity:1;fill-rule:nonzero;stroke:none" transform="translate(390.994 157.121)" fill="#dcdfe8" data-original="#dcdfe8"></path><path d="m0 0-19.499 82.305-21.334-7.184V43.397ZM0 0l19.499 82.305 21.334-7.184V43.397Z" style="fill-opacity:1;fill-rule:nonzero;stroke:none" transform="translate(417.5 82)" fill="#20b5c7" data-original="#20b5c7" class=""></path><path d="M0 0s5.297-2.143 10.734 8.089c6.218 11.703 22.604 18.238 42.241 17.526 24.368-.884 34.375 7.721 39.216 16.364 6.695-22.187 16.113-16.364 22.234-35.287C117.936-4.158 127.14 0 127.14 0s25.328 14.732 12.274 38.123c2.242 47.006-34.506 49.79-34.506 49.79S88.112 109.31 42.072 98.18c-66.436-16.059-54.641-62.888-54.641-62.888S-23.994 13.11 0 0" style="fill-opacity:1;fill-rule:nonzero;stroke:none" transform="translate(353.568 278.611)" fill="#ffd659" data-original="#ffd659" class=""></path><path d="M0 0c2.243 47.006-34.506 49.791-34.506 49.791s-14.572 18.532-53.734 12.11c8.412-1.703 14.333-4.715 18.157-7.308a55.343 55.343 0 0 1 13.077-6.541C-46.386 44.405-28.412 33.296-30 0c5.162-9.25 4.313-17.138 1.411-23.304 1.284-2.113 2.497-4.713 3.601-8.126 3.51-10.851 12.714-6.693 12.714-6.693S13.054-23.391 0 0" style="fill-opacity:1;fill-rule:nonzero;stroke:none" transform="translate(492.981 316.734)" fill="#ffbd54" data-original="#ffbd54"></path><path d="M112.183 135.924H76.817v56.762h35.366z" style="fill-opacity:1;fill-rule:nonzero;stroke:none" fill="#d98868" data-original="#d98868"></path><path d="M0 0v47.97c0 33.179 26.897 60.076 60.077 60.076h7.164c33.179 0 60.076-26.897 60.076-60.076V0c0-35.158-28.501-63.659-63.658-63.659C28.501-63.659 0-35.158 0 0" style="fill-opacity:1;fill-rule:nonzero;stroke:none" transform="translate(30.841 243.573)" fill="#ebad88" data-original="#ebad88" class=""></path><path d="M0 0h-7.164a60.39 60.39 0 0 1-7.028-.424c29.866-3.493 53.049-28.944 53.049-59.84v-47.584c0-31.64-22.942-57.902-53.049-62.969a63.866 63.866 0 0 1 10.61-.888c35.158 0 63.659 28.59 63.659 63.857v47.584C60.077-26.981 33.179 0 0 0" style="fill-opacity:1;fill-rule:nonzero;stroke:none" transform="translate(98.082 351.62)" fill="#e8916f" data-original="#e8916f" class=""></path><path d="M0 0v-11.991h-165.512V0c0 34.866 24.479 63.13 54.678 63.13h56.156C-24.479 63.13 0 34.866 0 0" style="fill-opacity:1;fill-rule:nonzero;stroke:none" transform="translate(177.256 93.991)" fill="#ff2c5c" data-original="#ff2c5c"></path><path d="M0 0h-30C.198 0 24.678-28.264 24.678-63.13v-11.991h30v11.991C54.678-28.264 30.198 0 0 0" style="fill-opacity:1;fill-rule:nonzero;stroke:none" transform="translate(122.578 157.121)" fill="#e62753" data-original="#e62753" class=""></path><path d="M0 0h53.013L26.506-75.121Z" style="fill-opacity:1;fill-rule:nonzero;stroke:none" transform="translate(67.994 157.121)" fill="#dcdfe8" data-original="#dcdfe8"></path><path d="m0 0-19.499 82.305-21.334-7.184V43.397ZM0 0l19.499 82.305 21.334-7.184V43.397Z" style="fill-opacity:1;fill-rule:nonzero;stroke:none" transform="translate(94.5 82)" fill="#d6244d" data-original="#d6244d" class=""></path><path d="M0 0s-37.158-16.735-49.991-38.35c-17.651-29.726-17.318-60.421-26.87-89.523 0 0-22.449 31.141-22.449 63.827C-99.31 76.202 3.066 59.222 7.637 48.568c20.649 8.657 62.053-9.237 62.053-91.395 0-42.277-5.089-70.473-19.069-87.723 0 0-8.582 36.686-12.196 68.27C31.806-4.442 0 0 0 0" style="fill-opacity:1;fill-rule:nonzero;stroke:none" transform="translate(106.81 320.55)" fill="#ffd659" data-original="#ffd659" class=""></path><path d="M0 0c-1.841 4.291-19.547 9.605-40.041 5.263 3.626-.884 6.369-3.15 9.725-9.136 4.472-7.978 11.153-14.538 19.44-18.368 22.304-10.311 36.37-31.838 43.064-69.154 1.579-8.808-.232-17.261-.724-24.979 3.904-30.181 11.52-62.744 11.52-62.744 13.98 17.25 19.07 45.445 19.07 87.723C62.054-9.238 20.649 8.656 0 0" style="fill-opacity:1;fill-rule:nonzero;stroke:none" transform="translate(114.446 369.118)" fill="#ffbd54" data-original="#ffbd54"></path><path d="M0 0c0-18.225-10.976-33-24.515-33-13.54 0-21.405 16.968-21.405 35.193C-45.92 20.418-38.055 33-24.515 33-10.976 33 0 18.226 0 0" style="fill-opacity:1;fill-rule:nonzero;stroke:none" transform="translate(178.92 304.305)" fill="#e8916f" data-original="#e8916f" class=""></path><path d="M0 0c0-18.225 10.976-33 24.515-33C38.055-33 45.92-16.032 45.92 2.193 45.92 20.418 38.055 33 24.515 33 10.976 33 0 18.226 0 0" style="fill-opacity:1;fill-rule:nonzero;stroke:none" transform="translate(333.08 304.305)" fill="#d98868" data-original="#d98868"></path><path d="M281 122h-50v80h50z" style="fill-opacity:1;fill-rule:nonzero;stroke:none" fill="#d98868" data-original="#d98868"></path><path d="M0 0v67.064C0 113.973 38.027 152 84.936 152h10.128C141.973 152 180 113.973 180 67.064V0c0-49.706-40.294-90-90-90S0-49.706 0 0" style="fill-opacity:1;fill-rule:nonzero;stroke:none" transform="translate(166 274)" fill="#ebad88" data-original="#ebad88" class=""></path><path d="M0 0h-10.129c-3.363 0-6.674-.217-9.935-.598 42.223-4.923 75-40.792 75-84.338V-152c0-44.594-32.436-81.606-75-88.749a90.637 90.637 0 0 1 15-1.251c49.705 0 90 40.294 90 90v67.064C84.936-38.027 46.909 0 0 0" style="fill-opacity:1;fill-rule:nonzero;stroke:none" transform="translate(261.065 426)" fill="#e8916f" data-original="#e8916f" class=""></path><path d="M0 0v-16.9h-234V0c0 49.14 34.609 88.975 77.304 88.975h79.392C-34.609 88.975 0 49.14 0 0" style="fill-opacity:1;fill-rule:nonzero;stroke:none" transform="translate(373 62.9)" fill="#685c79" data-original="#685c79"></path><path d="M0 0h-30c42.695 0 77.304-39.834 77.304-88.975v-16.9h30v16.9C77.304-39.834 42.695 0 0 0" style="fill-opacity:1;fill-rule:nonzero;stroke:none" transform="translate(295.696 151.875)" fill="#594f69" data-original="#594f69"></path><path d="M0 0h74.949L37.475-105.875Z" style="fill-opacity:1;fill-rule:nonzero;stroke:none" transform="translate(218.525 151.875)" fill="#ffd659" data-original="#ffd659" class=""></path><path d="m0 0-27.567 116-30.162-10.125V61.164l14.627-10.608V31.328ZM0 0l27.567 116 30.162-10.125V61.164L43.102 50.556V31.328Z" style="fill-opacity:1;fill-rule:nonzero;stroke:none" transform="translate(256 46)" fill="#50475e" data-original="#50475e" class=""></path><path d="M0 0s7.488-3.02 15.175 11.401c8.792 16.493 31.957 25.703 59.721 24.7 34.451-1.246 48.598 10.882 55.443 23.064 9.466-31.271 22.78-23.064 31.435-49.733C166.736-5.861 179.749 0 179.749 0s35.809 20.763 17.353 53.729c3.17 66.251-48.784 70.175-48.784 70.175s-23.746 30.156-88.838 14.471c-93.926-22.634-77.25-88.636-77.25-88.636S-33.922 18.477 0 0" style="fill-opacity:1;fill-rule:nonzero;stroke:none" transform="translate(165.613 323.103)" fill="#6e4124" data-original="#6e4124"></path><path d="M0 0c3.171 66.25-48.784 70.175-48.784 70.175s-18.904 24.001-69.205 18.037c28.029-3.848 39.205-18.037 39.205-18.037S-26.829 66.25-30 0c10.882-19.437 2.899-34.629-5.485-43.827.052-.157.105-.311.157-.471 4.963-15.292 17.975-9.431 17.975-9.431S18.456-32.967 0 0" style="fill-opacity:1;fill-rule:nonzero;stroke:none" transform="translate(362.715 376.833)" fill="#633a21" data-original="#633a21"></path><path d="M0 0a10.64 10.64 0 0 1 5.07-1.26c2.97 0 5.76 1.01 8.2 2.79v27.04" style="stroke-width:15;stroke-linecap:round;stroke-linejoin:round;stroke-miterlimit:10;stroke-dasharray:none;stroke-opacity:1" transform="translate(340.57 243.12)" fill="none" stroke="#000000" stroke-width="15" stroke-linecap="round" stroke-linejoin="round" stroke-miterlimit="10" stroke-dasharray="none" stroke-opacity="" data-original="#000000" class=""></path><path d="M0 0c8.28-1.22 13.03-9.75 13.03-21.7 0-12.93-5.56-24.97-15.14-24.97-2.97 0-5.76 1.01-8.2 2.79" style="stroke-width:15;stroke-linecap:round;stroke-linejoin:round;stroke-miterlimit:10;stroke-dasharray:none;stroke-opacity:1" transform="translate(491.47 288.53)" fill="none" stroke="#000000" stroke-width="15" stroke-linecap="round" stroke-linejoin="round" stroke-miterlimit="10" stroke-dasharray="none" stroke-opacity="" data-original="#000000" class=""></path><path d="M0 0v-25.78" style="stroke-width:15;stroke-linecap:round;stroke-linejoin:round;stroke-miterlimit:10;stroke-dasharray:none;stroke-opacity:1" transform="translate(435.18 182.4)" fill="none" stroke="#000000" stroke-width="15" stroke-linecap="round" stroke-linejoin="round" stroke-miterlimit="10" stroke-dasharray="none" stroke-opacity="" data-original="#000000" class=""></path><path d="M0 0v-25.78" style="stroke-width:15;stroke-linecap:round;stroke-linejoin:round;stroke-miterlimit:10;stroke-dasharray:none;stroke-opacity:1" transform="translate(399.82 182.4)" fill="none" stroke="#000000" stroke-width="15" stroke-linecap="round" stroke-linejoin="round" stroke-miterlimit="10" stroke-dasharray="none" stroke-opacity="" data-original="#000000" class=""></path><path d="M0 0c7.54 11.91 18.61 20.66 31.43 24.19" style="stroke-width:15;stroke-linecap:round;stroke-linejoin:round;stroke-miterlimit:10;stroke-dasharray:none;stroke-opacity:1" transform="translate(345.24 131.2)" fill="none" stroke="#000000" stroke-width="15" stroke-linecap="round" stroke-linejoin="round" stroke-miterlimit="10" stroke-dasharray="none" stroke-opacity="" data-original="#000000" class=""></path><path d="M0 0h129.05v11.99c0 29.8-17.88 54.77-41.93 61.4" style="stroke-width:15;stroke-linecap:round;stroke-linejoin:round;stroke-miterlimit:10;stroke-dasharray:none;stroke-opacity:1" transform="translate(371.21 82)" fill="none" stroke="#000000" stroke-width="15" stroke-linecap="round" stroke-linejoin="round" stroke-miterlimit="10" stroke-dasharray="none" stroke-opacity="" data-original="#000000" class=""></path><path d="M0 0H35.6" style="stroke-width:15;stroke-linecap:round;stroke-linejoin:round;stroke-miterlimit:10;stroke-dasharray:none;stroke-opacity:1" transform="translate(399.7 157.12)" fill="none" stroke="#000000" stroke-width="15" stroke-linecap="round" stroke-linejoin="round" stroke-miterlimit="10" stroke-dasharray="none" stroke-opacity="" data-original="#000000" class=""></path><path d="m0 0-19.499 82.305-21.334-7.184V43.397ZM0 0l19.499 82.305 21.334-7.184V43.397Z" style="stroke-width:15;stroke-linecap:round;stroke-linejoin:round;stroke-miterlimit:10;stroke-dasharray:none;stroke-opacity:1" transform="translate(417.5 82)" fill="none" stroke="#000000" stroke-width="15" stroke-linecap="round" stroke-linejoin="round" stroke-miterlimit="10" stroke-dasharray="none" stroke-opacity="" data-original="#000000" class=""></path><path d="M0 0c3.376 7.768 5.248 16.341 5.248 25.35V60.66" style="stroke-width:15;stroke-linecap:round;stroke-linejoin:round;stroke-miterlimit:10;stroke-dasharray:none;stroke-opacity:1" transform="translate(475.913 218.22)" fill="none" stroke="#000000" stroke-width="15" stroke-linecap="round" stroke-linejoin="round" stroke-miterlimit="10" stroke-dasharray="none" stroke-opacity="" data-original="#000000" class=""></path><path d="M0 0V-28.12c0-17.57 7.12-33.49 18.64-45.01 7.5-7.5 16.86-13.14 27.34-16.16a63.68 63.68 0 0 1 17.68-2.49c6.13 0 12.07.87 17.68 2.49a63.456 63.456 0 0 1 21.23 10.782" style="stroke-width:15;stroke-linecap:round;stroke-linejoin:round;stroke-miterlimit:10;stroke-dasharray:none;stroke-opacity:1" transform="translate(353.84 271.69)" fill="none" stroke="#000000" stroke-width="15" stroke-linecap="round" stroke-linejoin="round" stroke-miterlimit="10" stroke-dasharray="none" stroke-opacity="" data-original="#000000" class=""></path><path d="M0 0h.01c7.63 3.55 17.31 5.29 27.95 4.91 24.37-.89 34.38 7.72 39.22 16.36C73.87-.92 83.29 4.91 89.41-14.02c1.58-4.87 4.31-6.72 6.83-7.27 3.1-.68 5.89.58 5.89.58s.16.09.45.27c1.48.95 6.4 4.3 10.31 9.65 4.85 6.62 8.16 16.28 1.51 28.2 2.24 47.01-34.5 49.79-34.5 49.79S63.1 88.6 17.06 77.47C5.25 74.61-4.09 70.79-11.46 66.42" style="stroke-width:15;stroke-linecap:round;stroke-linejoin:round;stroke-miterlimit:10;stroke-dasharray:none;stroke-opacity:1" transform="translate(378.58 299.32)" fill="none" stroke="#000000" stroke-width="15" stroke-linecap="round" stroke-linejoin="round" stroke-miterlimit="10" stroke-dasharray="none" stroke-opacity="" data-original="#000000" class=""></path><path d="M0 0v25.28" style="stroke-width:15;stroke-linecap:round;stroke-linejoin:round;stroke-miterlimit:10;stroke-dasharray:none;stroke-opacity:1" transform="translate(112.18 157.12)" fill="none" stroke="#000000" stroke-width="15" stroke-linecap="round" stroke-linejoin="round" stroke-miterlimit="10" stroke-dasharray="none" stroke-opacity="" data-original="#000000" class=""></path><path d="M0 0v25.28" style="stroke-width:15;stroke-linecap:round;stroke-linejoin:round;stroke-miterlimit:10;stroke-dasharray:none;stroke-opacity:1" transform="translate(76.82 157.12)" fill="none" stroke="#000000" stroke-width="15" stroke-linecap="round" stroke-linejoin="round" stroke-miterlimit="10" stroke-dasharray="none" stroke-opacity="" data-original="#000000" class=""></path><path d="M0 0c-24.05-6.63-41.93-31.6-41.93-61.4v-11.99H87.12" style="stroke-width:15;stroke-linecap:round;stroke-linejoin:round;stroke-miterlimit:10;stroke-dasharray:none;stroke-opacity:1" transform="translate(53.67 155.39)" fill="none" stroke="#000000" stroke-width="15" stroke-linecap="round" stroke-linejoin="round" stroke-miterlimit="10" stroke-dasharray="none" stroke-opacity="" data-original="#000000" class=""></path><path d="M0 0c12.82-3.53 23.89-12.28 31.43-24.19" style="stroke-width:15;stroke-linecap:round;stroke-linejoin:round;stroke-miterlimit:10;stroke-dasharray:none;stroke-opacity:1" transform="translate(135.33 155.39)" fill="none" stroke="#000000" stroke-width="15" stroke-linecap="round" stroke-linejoin="round" stroke-miterlimit="10" stroke-dasharray="none" stroke-opacity="" data-original="#000000" class=""></path><path d="M0 0h-35.6" style="stroke-width:15;stroke-linecap:round;stroke-linejoin:round;stroke-miterlimit:10;stroke-dasharray:none;stroke-opacity:1" transform="translate(112.3 157.12)" fill="none" stroke="#000000" stroke-width="15" stroke-linecap="round" stroke-linejoin="round" stroke-miterlimit="10" stroke-dasharray="none" stroke-opacity="" data-original="#000000" class=""></path><path d="m0 0-19.499 82.305-21.334-7.184V43.397ZM0 0l19.499 82.305 21.334-7.184V43.397Z" style="stroke-width:15;stroke-linecap:round;stroke-linejoin:round;stroke-miterlimit:10;stroke-dasharray:none;stroke-opacity:1" transform="translate(94.5 82)" fill="none" stroke="#000000" stroke-width="15" stroke-linecap="round" stroke-linejoin="round" stroke-miterlimit="10" stroke-dasharray="none" stroke-opacity="" data-original="#000000" class=""></path><path d="M0 0c3.2-7.19 7.69-13.67 13.17-19.15 7.5-7.5 16.86-13.14 27.34-16.16a63.68 63.68 0 0 1 17.68-2.49c6.13 0 12.07.87 17.68 2.49 17.55 5.06 31.99 17.48 39.77 33.7" style="stroke-width:15;stroke-linecap:round;stroke-linejoin:round;stroke-miterlimit:10;stroke-dasharray:none;stroke-opacity:1" transform="translate(36.31 217.71)" fill="none" stroke="#000000" stroke-width="15" stroke-linecap="round" stroke-linejoin="round" stroke-miterlimit="10" stroke-dasharray="none" stroke-opacity="" data-original="#000000" class=""></path><path d="M0 0c14.223 10.46 29.206 17.209 29.206 17.209s15.199-2.12 26.779-22.55v-.01" style="stroke-width:15;stroke-linecap:round;stroke-linejoin:round;stroke-miterlimit:10;stroke-dasharray:none;stroke-opacity:1" transform="translate(77.605 303.34)" fill="none" stroke="#000000" stroke-width="15" stroke-linecap="round" stroke-linejoin="round" stroke-miterlimit="10" stroke-dasharray="none" stroke-opacity="" data-original="#000000" class=""></path><path d="M0 0c-10.86 7.33-22.35 8.08-30.56 4.64-4.57 10.65-106.95 27.63-106.95-112.62 0-32.68 22.45-63.82 22.45-63.82 2.7 8.24 4.61 16.6 6.36 25.03 4.299 20.692 7.642 41.787 19.333 62.459" style="stroke-width:15;stroke-linecap:round;stroke-linejoin:round;stroke-miterlimit:10;stroke-dasharray:none;stroke-opacity:1" transform="translate(145.01 364.48)" fill="none" stroke="#000000" stroke-width="15" stroke-linecap="round" stroke-linejoin="round" stroke-miterlimit="10" stroke-dasharray="none" stroke-opacity="" data-original="#000000" class=""></path><path d="M0 0c-2.7-20.33-7.98-35.54-16.78-46.4 0 0-2.57 10.98-5.48 26.09v.01c-2.42 12.52-5.08 27.87-6.72 42.17-.83 7.28-2.07 13.72-3.58 19.4" style="stroke-width:15;stroke-linecap:round;stroke-linejoin:round;stroke-miterlimit:10;stroke-dasharray:none;stroke-opacity:1" transform="translate(174.21 236.4)" fill="none" stroke="#000000" stroke-width="15" stroke-linecap="round" stroke-linejoin="round" stroke-miterlimit="10" stroke-dasharray="none" stroke-opacity="" data-original="#000000" class=""></path><path d="M0 0h-.01c-10.67-2.57-16.75-14.23-16.75-30.25 0-2.89.2-5.74.59-8.5v-.01c1.13-8.11 3.89-15.41 8.06-20.32 3.37-3.97 7.66-6.37 12.75-6.37 4.2 0 8.14 1.42 11.6 3.93" style="stroke-width:15;stroke-linecap:round;stroke-linejoin:round;stroke-miterlimit:10;stroke-dasharray:none;stroke-opacity:1" transform="translate(149.76 336.75)" fill="none" stroke="#000000" stroke-width="15" stroke-linecap="round" stroke-linejoin="round" stroke-miterlimit="10" stroke-dasharray="none" stroke-opacity="" data-original="#000000" class=""></path><path d="M0 0c2.41-1.75 5.05-2.96 7.84-3.54 1.23-.26 2.48-.39 3.76-.39 11.73 0 19.2 12.75 20.98 28.02h.01c.27 2.35.41 4.75.41 7.18 0 16.84-6.72 28.86-18.42 30.57" style="stroke-width:15;stroke-linecap:round;stroke-linejoin:round;stroke-miterlimit:10;stroke-dasharray:none;stroke-opacity:1" transform="translate(346 275.23)" fill="none" stroke="#000000" stroke-width="15" stroke-linecap="round" stroke-linejoin="round" stroke-miterlimit="10" stroke-dasharray="none" stroke-opacity="" data-original="#000000" class=""></path><path d="M0 0v35.64" style="stroke-width:15;stroke-linecap:round;stroke-linejoin:round;stroke-miterlimit:10;stroke-dasharray:none;stroke-opacity:1" transform="translate(281 151.88)" fill="none" stroke="#000000" stroke-width="15" stroke-linecap="round" stroke-linejoin="round" stroke-miterlimit="10" stroke-dasharray="none" stroke-opacity="" data-original="#000000" class=""></path><path d="M0 0v35.64" style="stroke-width:15;stroke-linecap:round;stroke-linejoin:round;stroke-miterlimit:10;stroke-dasharray:none;stroke-opacity:1" transform="translate(231 151.88)" fill="none" stroke="#000000" stroke-width="15" stroke-linecap="round" stroke-linejoin="round" stroke-miterlimit="10" stroke-dasharray="none" stroke-opacity="" data-original="#000000" class=""></path><path d="M0 0s10.682-21.88 41.419-21.88C72.156-21.88 81.042 0 81.042 0" style="stroke-width:15;stroke-linecap:round;stroke-linejoin:round;stroke-miterlimit:10;stroke-dasharray:none;stroke-opacity:1" transform="translate(215.479 254.088)" fill="none" stroke="#000000" stroke-width="15" stroke-linecap="round" stroke-linejoin="round" stroke-miterlimit="10" stroke-dasharray="none" stroke-opacity="" data-original="#000000" class=""></path><path d="M0 0c34-9.35 59.27-44.55 59.27-86.54v-16.9h-234v16.9c0 41.99 25.27 77.19 59.27 86.54" style="stroke-width:15;stroke-linecap:round;stroke-linejoin:round;stroke-miterlimit:10;stroke-dasharray:none;stroke-opacity:1" transform="translate(313.73 149.44)" fill="none" stroke="#000000" stroke-width="15" stroke-linecap="round" stroke-linejoin="round" stroke-miterlimit="10" stroke-dasharray="none" stroke-opacity="" data-original="#000000" class=""></path><path d="M0 0h-50.32" style="stroke-width:15;stroke-linecap:round;stroke-linejoin:round;stroke-miterlimit:10;stroke-dasharray:none;stroke-opacity:1" transform="translate(281.16 151.88)" fill="none" stroke="#000000" stroke-width="15" stroke-linecap="round" stroke-linejoin="round" stroke-miterlimit="10" stroke-dasharray="none" stroke-opacity="" data-original="#000000" class=""></path><path d="M0 0c19 6.767 35 2.9 35 2.9" style="stroke-width:15;stroke-linecap:round;stroke-linejoin:round;stroke-miterlimit:10;stroke-dasharray:none;stroke-opacity:1" transform="translate(275.5 308.5)" fill="none" stroke="#000000" stroke-width="15" stroke-linecap="round" stroke-linejoin="round" stroke-miterlimit="10" stroke-dasharray="none" stroke-opacity="" data-original="#000000" class=""></path><path d="M0 0c-19 6.767-35 2.9-35 2.9" style="stroke-width:15;stroke-linecap:round;stroke-linejoin:round;stroke-miterlimit:10;stroke-dasharray:none;stroke-opacity:1" transform="translate(236.5 308.5)" fill="none" stroke="#000000" stroke-width="15" stroke-linecap="round" stroke-linejoin="round" stroke-miterlimit="10" stroke-dasharray="none" stroke-opacity="" data-original="#000000" class=""></path><path d="m0 0-27.567 116-30.162-10.125V61.164l14.627-10.608V31.328ZM0 0l27.567 116 30.162-10.125V61.164L43.102 50.556V31.328Z" style="stroke-width:15;stroke-linecap:round;stroke-linejoin:round;stroke-miterlimit:10;stroke-dasharray:none;stroke-opacity:1" transform="translate(256 46)" fill="none" stroke="#000000" stroke-width="15" stroke-linecap="round" stroke-linejoin="round" stroke-miterlimit="10" stroke-dasharray="none" stroke-opacity="" data-original="#000000" class=""></path><path d="M0 0V-49.49a90 90 0 0 0-5.43-30.88C-15.22-107.16-37.38-128-65-135.97a89.995 89.995 0 0 0-25-3.52c-8.68 0-17.07 1.23-25 3.52-14.81 4.27-28.04 12.24-38.64 22.84a89.983 89.983 0 0 0-18.15 26.04c-5.27 11.44-8.21 24.18-8.21 37.6V-.5" style="stroke-width:15;stroke-linecap:round;stroke-linejoin:round;stroke-miterlimit:10;stroke-dasharray:none;stroke-opacity:1" transform="translate(346 323.49)" fill="none" stroke="#000000" stroke-width="15" stroke-linecap="round" stroke-linejoin="round" stroke-miterlimit="10" stroke-dasharray="none" stroke-opacity="" data-original="#000000" class=""></path><path d="M0 0c57.378 10.341 78.614-16.628 78.614-16.628s51.96-3.93 48.789-70.18c2.171-3.87 3.591-7.57 4.401-11.09 2.73-11.76-1.27-21.49-6.54-28.67-5.531-7.52-12.471-12.24-14.58-13.58-.411-.26-.641-.39-.641-.39s-13.009-5.86-17.969 9.44c-8.66 26.66-21.97 18.46-31.44 49.73-6.841-12.18-20.99-24.31-55.441-23.07-27.759 1.01-50.929-8.2-59.719-24.7-6.65-12.47-13.161-11.9-14.79-11.51-.25.06-.391.11-.391.11-7.489 4.08-12.54 8.79-15.85 13.65h-.009c-6.84 9.99-6.34 20.62-4.741 27.73 1.131 5.07 2.83 8.36 2.83 8.36s-14.097 55.814 56.675 82.395" style="stroke-width:15;stroke-linecap:round;stroke-linejoin:round;stroke-miterlimit:10;stroke-dasharray:none;stroke-opacity:1" transform="translate(235.316 463.638)" fill="none" stroke="#000000" stroke-width="15" stroke-linecap="round" stroke-linejoin="round" stroke-miterlimit="10" stroke-dasharray="none" stroke-opacity="" data-original="#000000" class=""></path></g></g></svg>