<svg xmlns="http://www.w3.org/2000/svg" version="1.1" xmlns:xlink="http://www.w3.org/1999/xlink" xmlns:svgjs="http://svgjs.com/svgjs" width="512" height="512" x="0" y="0" viewBox="0 0 512.005 512.005" style="enable-background:new 0 0 512 512" xml:space="preserve" class=""><g><path fill="#0593fc" d="M284.737 67.97a39.052 39.052 0 0 0 40.397 10.824c21.801-6.822 44.777 6.443 49.77 28.734a39.051 39.051 0 0 0 29.573 29.573c22.291 4.992 35.556 27.969 28.734 49.77a39.052 39.052 0 0 0 10.824 40.397c16.809 15.469 16.809 42 0 57.469a39.052 39.052 0 0 0-10.824 40.397c6.822 21.801-6.443 44.777-28.734 49.77a39.051 39.051 0 0 0-29.573 29.573c-4.992 22.291-27.969 35.556-49.77 28.734a39.052 39.052 0 0 0-40.397 10.824c-15.469 16.809-42 16.809-57.469 0a39.052 39.052 0 0 0-40.397-10.824c-21.801 6.822-44.777-6.443-49.77-28.734a39.051 39.051 0 0 0-29.573-29.573c-22.291-4.992-35.557-27.969-28.734-49.77a39.052 39.052 0 0 0-10.824-40.397c-16.809-15.469-16.809-42 0-57.469a39.052 39.052 0 0 0 10.824-40.397c-6.822-21.801 6.443-44.777 28.734-49.77a39.051 39.051 0 0 0 29.573-29.573c4.992-22.291 27.969-35.557 49.77-28.734a39.052 39.052 0 0 0 40.397-10.824c15.469-16.808 42-16.808 57.469 0z" data-original="#0593fc"></path><path fill="#0181fa" d="M444.035 227.268a39.05 39.05 0 0 1-10.824-40.397c6.822-21.801-6.443-44.777-28.734-49.77a39.051 39.051 0 0 1-29.573-29.573c-4.771-21.3-25.961-34.345-46.857-29.512 14.083 3.281 25.882 14.288 29.291 29.512a39.054 39.054 0 0 0 29.573 29.573c22.291 4.992 35.557 27.969 28.734 49.77a39.052 39.052 0 0 0 10.824 40.397c16.809 15.469 16.809 42 0 57.469a39.052 39.052 0 0 0-10.824 40.397c6.822 21.801-6.443 44.777-28.734 49.77a39.051 39.051 0 0 0-29.573 29.573c-3.41 15.224-15.209 26.232-29.291 29.512 20.896 4.833 42.086-8.212 46.857-29.512a39.051 39.051 0 0 1 29.573-29.573c22.291-4.992 35.557-27.969 28.734-49.77a39.052 39.052 0 0 1 10.824-40.397c16.808-15.469 16.808-42 0-57.469z" data-original="#0181fa"></path><circle cx="256.002" cy="256.003" r="156.549" fill="#ffd15b" data-original="#ffd15b" class=""></circle><path fill="#feb137" d="M256.002 99.453c-3.964 0-7.893.15-11.783.44 80.956 6.024 144.767 73.614 144.767 156.109s-63.81 150.086-144.766 156.11c3.89.289 7.819.44 11.783.44 86.46 0 156.549-70.09 156.549-156.549s-70.09-156.55-156.55-156.55z" data-original="#feb137"></path><path fill="#eaf6ff" d="m231.985 263.999-31.982-31.982c-6.145-6.145-16.108-6.145-22.252 0l-20.882 20.882c-6.145 6.145-6.145 16.108 0 22.252l53.499 53.499c11.088 11.088 29.064 11.088 40.152 0l104.615-104.615c6.145-6.145 6.145-16.108 0-22.252l-19.341-19.341c-6.145-6.145-16.108-6.145-22.252 0z" data-original="#eaf6ff"></path><path fill="#c8effe" d="m355.136 201.782-19.341-19.341c-6.145-6.145-16.108-6.145-22.252 0l-4.752 4.752c4.562-.482 9.293 1.018 12.79 4.514l9.99 10.075c6.145 6.145 6.145 16.108 0 22.252l-95.196 95.482c-7.563 7.563-18.331 9.963-27.931 7.208l1.926 1.926c11.088 11.088 29.064 11.088 40.152 0l104.615-104.615c6.144-6.145 6.144-16.108-.001-22.253z" data-original="#c8effe"></path><path d="M274.556 92.992a7.5 7.5 0 1 0-1.678 14.905c75.352 8.486 132.174 72.157 132.174 148.105 0 82.186-66.863 149.049-149.049 149.049s-149.049-66.863-149.049-149.049c0-75.849 56.74-139.511 131.982-148.083 4.115-.469 7.072-4.185 6.603-8.301s-4.181-7.077-8.301-6.603c-82.825 9.437-145.284 79.505-145.284 162.987 0 90.457 73.592 164.049 164.049 164.049s164.049-73.592 164.049-164.049c0-83.59-62.55-153.669-145.496-163.01z" fill="#000000" data-original="#000000"></path><path d="M440.368 322.894c-3.629-11.598-.196-24.409 8.745-32.639 9.55-8.789 15.028-21.274 15.028-34.253s-5.478-25.464-15.027-34.253c-8.942-8.229-12.375-21.041-8.746-32.639 3.876-12.387 2.377-25.938-4.112-37.178s-17.476-19.314-30.141-22.15c-11.858-2.656-21.237-12.035-23.893-23.893-2.836-12.665-10.91-23.651-22.15-30.141s-24.791-7.989-37.178-4.112c-11.598 3.629-24.409.196-32.639-8.745-8.789-9.55-21.274-15.028-34.253-15.028s-25.464 5.478-34.253 15.027c-8.229 8.942-21.039 12.375-32.639 8.746-12.387-3.876-25.938-2.378-37.178 4.112a46.673 46.673 0 0 0-22.15 30.141c-2.656 11.858-12.035 21.237-23.893 23.893-12.665 2.836-23.651 10.91-30.141 22.15s-7.988 24.791-4.112 37.178c3.629 11.598.196 24.409-8.745 32.639-9.55 8.789-15.028 21.274-15.028 34.253s5.478 25.464 15.027 34.253c8.942 8.229 12.375 21.041 8.746 32.639-3.876 12.387-2.377 25.938 4.112 37.178s17.476 19.314 30.141 22.15c11.858 2.656 21.237 12.035 23.893 23.893 2.836 12.665 10.91 23.651 22.15 30.141 11.241 6.489 24.791 7.989 37.178 4.112 11.601-3.628 24.41-.196 32.639 8.745 8.789 9.55 21.274 15.028 34.253 15.028s25.464-5.478 34.253-15.027c8.23-8.942 21.042-12.375 32.639-8.746 12.385 3.875 25.938 2.377 37.178-4.112s19.314-17.476 22.15-30.141c2.656-11.858 12.035-21.237 23.893-23.893 12.665-2.836 23.651-10.91 30.141-22.15s7.988-24.791 4.112-37.178zm-14.315 4.48c2.666 8.519 1.676 17.468-2.787 25.198s-11.718 13.062-20.429 15.013c-17.496 3.919-31.333 17.756-35.252 35.252-1.951 8.71-7.282 15.965-15.013 20.429-7.731 4.463-16.68 5.452-25.198 2.787-17.113-5.356-36.014-.29-48.155 12.903-6.045 6.568-14.29 10.186-23.216 10.186s-17.171-3.617-23.216-10.186c-8.929-9.701-21.513-15.007-34.352-15.007-4.621 0-9.275.688-13.803 2.104-8.518 2.664-17.468 1.675-25.198-2.787-7.73-4.463-13.062-11.718-15.013-20.429-3.919-17.496-17.756-31.333-35.252-35.252-8.71-1.951-15.965-7.282-20.429-15.013-4.463-7.73-5.453-16.679-2.787-25.198 5.354-17.111.29-36.013-12.903-48.155-6.568-6.045-10.186-14.29-10.186-23.216s3.617-17.171 10.186-23.216c13.192-12.142 18.257-31.044 12.903-48.155-2.666-8.519-1.676-17.468 2.787-25.198s11.718-13.062 20.429-15.013c17.496-3.919 31.333-17.756 35.252-35.252 1.951-8.71 7.282-15.965 15.013-20.429s16.681-5.453 25.198-2.787c17.11 5.354 36.013.289 48.155-12.903 6.045-6.568 14.29-10.186 23.216-10.186s17.171 3.617 23.216 10.186c12.143 13.192 31.044 18.257 48.155 12.903 8.517-2.666 17.467-1.677 25.198 2.787 7.73 4.463 13.062 11.718 15.013 20.429 3.919 17.496 17.756 31.333 35.252 35.252 8.71 1.951 15.965 7.282 20.429 15.013 4.463 7.73 5.453 16.679 2.787 25.198-5.354 17.111-.29 36.013 12.903 48.155 6.568 6.045 10.186 14.29 10.186 23.216s-3.617 17.171-10.186 23.216c-13.193 12.142-18.258 31.044-12.903 48.155zM439.687 77.735a7.474 7.474 0 0 0 5.303-2.197l62.732-62.732a7.5 7.5 0 0 0 0-10.606 7.5 7.5 0 0 0-10.606 0l-62.732 62.732a7.5 7.5 0 0 0 5.303 12.803zM509.654 105.004a7.497 7.497 0 0 0-9.209-5.261l-31.366 8.557a7.498 7.498 0 0 0-5.261 9.209 7.504 7.504 0 0 0 7.231 5.528c.653 0 1.318-.086 1.979-.267l31.366-8.557a7.498 7.498 0 0 0 5.26-9.209zM391.743 46.104a7.482 7.482 0 0 0 1.979.267 7.504 7.504 0 0 0 7.231-5.528l8.557-31.366a7.499 7.499 0 0 0-5.261-9.209 7.497 7.497 0 0 0-9.209 5.261l-8.557 31.366a7.496 7.496 0 0 0 5.26 9.209zM67.015 75.538c1.464 1.464 3.384 2.197 5.303 2.197s3.839-.732 5.303-2.197a7.5 7.5 0 0 0 0-10.606L14.889 2.2a7.5 7.5 0 0 0-10.606 0 7.5 7.5 0 0 0 0 10.606zM42.926 108.3 11.56 99.743a7.497 7.497 0 0 0-9.209 5.261 7.499 7.499 0 0 0 5.261 9.209l31.366 8.557a7.482 7.482 0 0 0 1.979.267 7.5 7.5 0 0 0 1.969-14.737zM111.053 40.843a7.504 7.504 0 0 0 7.231 5.528c.653 0 1.318-.086 1.979-.267a7.498 7.498 0 0 0 5.261-9.209l-8.557-31.366a7.497 7.497 0 0 0-9.209-5.261 7.498 7.498 0 0 0-5.261 9.209zM444.99 436.468a7.5 7.5 0 0 0-10.606 0 7.5 7.5 0 0 0 0 10.606l62.732 62.732c1.464 1.464 3.384 2.197 5.303 2.197s3.839-.732 5.303-2.197a7.5 7.5 0 0 0 0-10.606zM504.393 397.792l-31.366-8.557c-3.998-1.091-8.119 1.265-9.209 5.261s1.265 8.12 5.261 9.209l31.366 8.557a7.482 7.482 0 0 0 1.979.267 7.5 7.5 0 0 0 1.969-14.737zM400.952 471.162a7.498 7.498 0 0 0-9.209-5.261 7.498 7.498 0 0 0-5.261 9.209l8.557 31.366a7.504 7.504 0 0 0 7.231 5.528c.653 0 1.317-.086 1.979-.267a7.498 7.498 0 0 0 5.261-9.209zM67.015 436.468 4.283 499.2a7.5 7.5 0 0 0 5.303 12.803 7.474 7.474 0 0 0 5.303-2.197l62.732-62.732a7.5 7.5 0 0 0 0-10.606 7.5 7.5 0 0 0-10.606 0zM38.977 389.235l-31.366 8.557a7.498 7.498 0 0 0-5.261 9.209 7.504 7.504 0 0 0 7.231 5.528c.653 0 1.318-.086 1.979-.267l31.366-8.557a7.498 7.498 0 0 0 5.261-9.209 7.497 7.497 0 0 0-9.21-5.261zM120.262 465.901a7.498 7.498 0 0 0-9.209 5.261l-8.557 31.366a7.499 7.499 0 0 0 5.261 9.209 7.482 7.482 0 0 0 1.979.267 7.504 7.504 0 0 0 7.231-5.528l8.557-31.366a7.5 7.5 0 0 0-5.262-9.209z" fill="#000000" data-original="#000000"></path><path d="M288.292 280.272a7.5 7.5 0 0 0 0 10.606 7.5 7.5 0 0 0 10.606 0l61.541-61.541c4.389-4.389 6.806-10.223 6.806-16.43s-2.417-12.041-6.806-16.429l-19.341-19.342c-9.06-9.058-23.8-9.058-32.859 0l-76.254 76.254-26.678-26.679c-4.389-4.389-10.223-6.806-16.43-6.806s-12.041 2.417-16.43 6.806l-20.881 20.881c-4.389 4.389-6.806 10.223-6.806 16.43s2.417 12.041 6.806 16.429l53.499 53.5c6.997 6.997 16.188 10.496 25.379 10.496s18.382-3.499 25.379-10.496l18.442-18.442a7.5 7.5 0 0 0 0-10.606 7.5 7.5 0 0 0-10.606 0l-18.442 18.442c-8.146 8.145-21.401 8.145-29.546 0l-53.499-53.5a8.177 8.177 0 0 1-2.412-5.822c0-2.2.857-4.268 2.412-5.823l20.881-20.881c1.556-1.555 3.624-2.412 5.823-2.412s4.267.856 5.823 2.412l31.982 31.982a7.5 7.5 0 0 0 10.606 0l81.558-81.557c3.21-3.21 8.435-3.211 11.646 0l19.341 19.342c1.556 1.555 2.412 3.623 2.412 5.822s-.857 4.268-2.412 5.823z" fill="#000000" data-original="#000000"></path></g></svg>